<svg width="36" height="36" viewBox="0 0 36 36" fill="none" xmlns="http://www.w3.org/2000/svg">
<g clip-path="url(#clip0_735_2676)">
<path d="M13.1431 29.1516C13.13 29.1619 13.0908 29.1902 13.041 29.2237C13.0908 29.1799 13.13 29.1516 13.1431 29.1516Z" fill="white"/>
<path d="M15.3603 27.8921C15.3393 27.9024 15.3158 27.9153 15.2948 27.9256C15.2686 27.9359 15.2555 27.941 15.2529 27.941C15.2634 27.9333 15.2974 27.9178 15.3603 27.8921Z" fill="white"/>
<path d="M15.8839 27.6785C15.6378 27.7789 15.4624 27.8484 15.3604 27.8922C15.5357 27.7944 15.719 27.7068 15.8839 27.6785Z" fill="white"/>
<path d="M18.3916 27.0474C18.368 27.05 18.3471 27.0526 18.3262 27.0577C17.6482 27.1891 16.9807 27.3591 16.3263 27.5677C16.2138 27.3204 16.1195 27.0887 16.0436 26.8749C15.952 26.6096 15.8578 26.3469 15.7609 26.0842C15.7609 26.0817 15.7583 26.0765 15.7557 26.0739C15.6981 25.9452 15.6143 25.7597 15.5803 25.6825C15.5122 25.5254 15.4965 25.4533 15.5175 25.4404C15.4965 25.3811 15.4808 25.3374 15.4756 25.3193C15.4834 25.3322 15.4991 25.3708 15.5253 25.4378C15.5986 25.4249 15.9232 25.837 16.0619 26.0739H16.0645C16.5567 26.3057 17.8367 27.0346 18.2372 27.0449C18.2921 27.0474 18.3445 27.0474 18.3916 27.0474Z" fill="white"/>
<path d="M18.3916 27.0475C18.8549 26.9754 19.4648 27.0681 18.3916 27.0475V27.0475Z" fill="white"/>
<path d="M35.33 12.723C34.8928 11.9684 34.262 11.3142 33.5055 10.8146C32.2124 9.95954 30.6497 9.68654 29.1158 9.66337C28.2284 9.65049 27.3436 9.7123 26.4615 9.79729C26.8751 7.31458 25.7993 4.22407 23.8334 2.38007C21.4174 0.121422 17.7135 -0.161874 15.0697 1.84953C13.7713 2.83592 13.1169 4.23437 12.3631 5.61738C12.0254 6.23805 11.6851 6.86646 11.3684 7.50001C7.5231 6.69905 3.26686 7.87345 1.14398 11.4275C-0.497262 14.1755 -0.329735 17.7013 1.35339 20.3952C1.56803 20.7377 3.30874 21.9224 5.01804 23.0659C3.17786 25.7134 2.24861 28.791 3.07578 30.7226C5.53633 36.4581 12.0725 35.8631 16.423 32.8628C17.5669 32.0747 18.2815 31.6266 18.7631 31.3124C22.3283 36.234 30.2256 37.4445 33.5736 31.4978C34.4845 29.8779 34.8588 27.9128 34.5735 26.0817C34.4452 25.255 34.2018 24.4849 33.7228 23.7973C33.6024 23.6247 31.969 21.7241 31.9559 21.7292C32.77 21.4356 33.6599 21.057 34.2358 20.3952C35.4294 19.0173 36.0158 16.9132 36.0027 15.1284C35.9948 14.2605 35.7514 13.4441 35.3326 12.7204L35.33 12.723Z" fill="#A31E04"/>
<path d="M19.5929 13.1041C16.3444 12.2516 12.5306 14.124 11.8578 17.5106C11.4731 19.4474 12.0149 21.4304 13.5148 22.7928C14.1954 23.4109 15.0409 23.8822 15.9465 24.132C15.9806 24.1475 16.0172 24.1604 16.0513 24.1733C17.4648 24.7115 19.0065 24.8738 20.4907 24.5029C22.3335 24.0419 24.0376 22.4606 24.5218 20.6372C25.4197 17.2814 22.8597 13.9617 19.5929 13.1041Z" fill="#E6CB9C"/>
</g>
<defs>
<clipPath id="clip0_735_2676">
<rect width="36" height="35" fill="white" transform="translate(0 0.5)"/>
</clipPath>
</defs>
</svg>
