<svg width="35" height="36" viewBox="0 0 35 36" fill="none" xmlns="http://www.w3.org/2000/svg">
<g clip-path="url(#clip0_735_2670)">
<path d="M12.5412 2.85129C13.8601 4.06346 15.5066 6.24847 16.4478 7.79748C16.843 8.44677 17.1029 9.16477 17.5484 9.78082C18.1663 8.47115 18.8848 7.19693 19.7386 6.02687C22.7084 1.9538 28.0431 -2.18353 32.4301 2.75379C38.3545 9.41961 32.7358 18.5009 28.6611 24.4975C26.7788 27.2697 22.228 33.2641 19.4918 34.8951C18.1642 35.6884 16.8234 35.7173 15.4935 34.8951C12.9059 33.2974 8.56252 27.7129 6.73697 25.0737C2.75612 19.3186 -3.18567 10.0423 2.07263 3.36763C4.95509 -0.293255 9.22199 -0.200181 12.5412 2.85129Z" fill="#A31E04"/>
</g>
<defs>
<clipPath id="clip0_735_2670">
<rect width="35" height="35" fill="white" transform="translate(0 0.5)"/>
</clipPath>
</defs>
</svg>
