<svg width="16" height="15" viewBox="0 0 16 15" fill="none" xmlns="http://www.w3.org/2000/svg">
<path fill-rule="evenodd" clip-rule="evenodd" d="M3.3564 1.31299C3.19745 1.31297 3.04617 1.31296 2.91869 1.32337C2.77969 1.33473 2.62025 1.36122 2.46089 1.44242C2.23744 1.55627 2.05578 1.73793 1.94193 1.96138C1.86073 2.12074 1.83424 2.28018 1.82289 2.41919C1.81247 2.54666 1.81249 2.69794 1.8125 2.85689V9.64409C1.81249 9.80304 1.81247 9.95432 1.82289 10.0818C1.83424 10.2208 1.86073 10.3802 1.94193 10.5396C2.05578 10.763 2.23744 10.9447 2.46089 11.0586C2.62025 11.1398 2.77969 11.1662 2.91869 11.1776C3.04617 11.188 3.19745 11.188 3.3564 11.188H10.1436C10.3025 11.188 10.4538 11.188 10.5813 11.1776C10.7203 11.1662 10.8797 11.1398 11.0391 11.0586C11.2625 10.9447 11.4442 10.763 11.558 10.5396C11.6392 10.3802 11.6657 10.2208 11.6771 10.0818C11.6875 9.95432 11.6875 9.80304 11.6875 9.64409V2.85689C11.6875 2.69794 11.6875 2.54666 11.6771 2.41919C11.6657 2.28018 11.6392 2.12074 11.558 1.96138C11.4442 1.73793 11.2625 1.55627 11.0391 1.44242C10.8797 1.36122 10.7203 1.33473 10.5813 1.32337C10.4538 1.31296 10.3025 1.31297 10.1436 1.31299H3.3564ZM2.93749 2.50037C2.93749 2.46585 2.96547 2.43787 2.99999 2.43787H10.5C10.5345 2.43787 10.5625 2.46585 10.5625 2.50037V10.0004C10.5625 10.0349 10.5345 10.0629 10.5 10.0629H2.99999C2.96547 10.0629 2.93749 10.0349 2.93749 10.0004V2.50037ZM14.1771 12.582C14.1875 12.4546 14.1875 12.3033 14.1875 12.1443L14.1875 5.62573L13.0625 5.62597V12.501C13.0625 12.5355 13.0345 12.5635 13 12.5635H6.12501L6.125 13.6882L12.6436 13.6882C12.8025 13.6882 12.9538 13.6883 13.0813 13.6778C13.2203 13.6665 13.3797 13.64 13.5391 13.5588C13.7625 13.445 13.9442 13.2633 14.058 13.0398C14.1392 12.8805 14.1657 12.721 14.1771 12.582Z" fill="#9B9B9B"/>
</svg>
