<svg width="347" height="204" viewBox="0 0 347 204" fill="none" xmlns="http://www.w3.org/2000/svg">
<g clip-path="url(#clip0_735_2830)">
<path d="M259.216 98.9622C259.042 98.9662 258.853 98.9101 258.681 98.9226C258.781 98.7418 258.719 98.5967 258.988 98.4059L259.216 98.9622Z" fill="currentColor"/>
<path d="M258.987 98.4059C259.387 98.1236 259.803 98.1713 260.238 97.9703C260.752 97.733 260.862 96.8869 261.739 97.5307L261.646 96.7006C262.761 96.8141 263.142 95.3446 263.3 95.2607C263.55 95.1304 264.09 95.4008 264.286 95.2524C264.405 95.1628 264.333 94.6573 264.667 94.3898C265.253 93.9219 266.913 93.1064 267.506 92.445C267.79 92.1288 267.805 91.5483 267.844 91.5174C268.01 91.3865 268.555 91.8961 269.045 91.6318C269.507 91.3821 270.35 89.7952 270.954 89.2386C271.189 89.0228 271.546 89.1195 271.776 88.9174C273.577 87.3396 275.089 86.2153 276.963 84.5192C279.849 81.9091 282.779 78.625 285.622 76.3967L286.157 76.4363L285.845 76.9443L287.202 76.7751C286.867 77.6635 287.574 78.3312 287.594 79.0914C287.661 81.8135 281.932 84.6823 281.011 87.3565L280.261 87.0452C280.83 88.2928 279.233 88.7449 278.481 89.5574C277.729 90.37 276.974 91.6684 276.303 92.3352C276.024 92.6125 275.37 92.5218 275.281 92.6276C275.204 92.7175 275.468 93.1697 275.339 93.4244C275.158 93.7875 274.042 94.4859 273.866 94.7426C273.631 95.0793 273.674 95.6304 273.415 96.0664C273.246 96.3489 272.615 95.8975 273.07 97.0243L272.249 97.0983C272.017 97.6151 272.322 98.3429 272.84 98.3504C273.024 98.3528 273.202 97.7759 273.372 97.6732C273.609 97.5279 274.894 96.7857 274.983 96.7586C275.373 96.633 275.8 97.0355 276.051 96.8658C276.302 96.6961 276.272 96.1937 276.456 96.0163C277.491 95.014 278.976 94.711 279.817 93.5257C280.621 94.4422 281.757 91.8121 282.288 92.3207L282.513 92.8712L282.618 91.533L283.398 91.8606C283.242 90.7813 283.944 91.148 284.352 90.8551C284.76 90.5622 286.698 88.8372 286.848 88.7752C288.999 87.909 289.189 86.8581 290.864 85.8498C291.342 85.5621 292.473 85.3789 292.686 85.1896C293.154 84.7719 293.413 83.0573 294.75 83.8083C294.674 81.8358 297.676 81.9317 298.284 80.0352L299.037 80.3522L299.417 79.0373L299.871 79.2704C300.801 78.2435 301.362 77.6275 302.495 76.9359C302.724 76.7955 302.798 76.402 302.877 76.3628C302.946 76.3287 304.279 76.6803 304.366 76.7514C304.615 76.9496 304.208 77.8664 304.834 78.1882C305.028 78.2869 305.367 78.1012 305.379 78.1246C305.596 78.5622 303.844 81.5626 303.436 82.1224C303.028 82.6822 301.944 83.6192 301.478 84.2C300.676 85.1943 300.005 86.3416 299.063 87.2272L299.575 87.5321C298.569 87.9521 298.3 88.8201 297.623 89.61C296.568 90.8413 294.956 92.2954 294.246 93.8894C293.87 94.7354 294.715 94.9779 293.13 94.7396L293.642 95.0445L293.603 95.5755C292.445 95.633 293.147 97.0422 291.653 96.5185L292.156 96.9547C290.767 97.515 291.277 98.0051 290.941 98.6799C290.846 98.8724 289.82 99.7068 289.812 99.7876C289.687 101.048 287.583 103.051 286.566 104.42C285.903 105.312 286.242 105.725 286.058 106.169C285.959 106.406 284.691 107.079 284.875 108.147L284.098 107.817L284.264 109.175L283.461 109.115C283.835 110.236 283.199 110.313 282.886 110.759C282.823 110.847 283.035 111.132 282.983 111.184C282.704 111.476 281.914 111.504 281.537 112.291C281.231 112.932 281.589 113.441 281.476 114.088L280.184 113.455C280.025 113.64 280.906 115.018 279.988 116.217C279.724 116.563 278.998 116.458 279.104 117.149C280.547 117.031 281.107 116.811 282.273 116.035C283.322 115.337 285.36 112.976 285.967 112.619C286.389 112.372 287.142 112.532 287.458 112.311C287.608 112.204 289.321 110.156 289.461 110.077C289.766 109.9 290.412 110.021 290.624 109.882C290.733 109.811 290.992 108.549 292.076 107.865C292.829 107.39 293.885 106.974 294.605 106.361C295.164 105.888 295.187 104.37 296.914 105.259L297.039 103.65L297.819 103.86L298.181 102.948L298.968 102.986L298.755 102.164C299.823 102.488 299.869 101.187 300.615 100.684C301.293 100.228 300.36 101.713 301.242 101.267L301.081 100.485C301.663 100.343 301.973 99.8288 302.392 99.472C303.803 98.2672 305.501 96.9094 306.888 95.7646C307.927 94.9058 308.265 93.332 309.569 94.0693L309.479 93.2393L311.293 92.5785L310.931 92.015C312.274 91.8532 312.725 89.8916 313.859 90.6163L313.651 89.7944C315.244 90.1513 314.642 88.5921 315.868 88.8768L315.377 88.3094C316.21 87.9946 315.967 87.6506 317 88.1543L316.524 87.3182L318.075 86.3513L318.431 86.9143C318.761 85.1349 320.702 84.7363 322.085 83.5771C322.44 83.2775 322.667 83.1286 322.882 82.9478C323.145 82.7256 323.224 82.2257 323.638 82.0428C324.244 81.7758 324.917 82.4101 324.775 81.1885L325.265 81.7587C325.734 81.3552 325.817 80.4987 325.978 80.2661C326.04 80.1752 327.463 79.4657 327.877 79.0946C328.156 78.8455 327.943 78.5375 327.985 78.5013C328.381 78.1513 329.651 78.6359 329.64 77.233L330.684 77.5801L330.509 76.8899C331.042 76.7974 331 76.1985 331.139 76.088C331.36 75.9105 331.807 76.0054 332.037 75.8061C334.028 74.0878 337.157 71.2934 339.311 70.0452C340.347 69.442 341.815 69.5199 342.539 68.2219C343.097 68.1734 342.986 68.3927 342.785 68.7993C342.354 69.6554 341.564 70.2965 341.894 71.4055L341.114 71.0808L341.563 72.0189C340.896 72.2167 340.442 73.914 340.345 73.977C340.312 73.9999 340.029 73.7063 339.901 73.7643C339.504 73.94 338.562 75.6966 338.265 75.9191C337.654 76.3712 336.643 77.3612 336.537 77.4209C336.121 77.6654 335.881 77.0098 335.758 78.1022L335.231 77.9226L335.436 78.7442L334.364 78.6648L334.284 79.7379L333.507 79.4078C333.843 80.3178 332.065 80.5345 331.663 80.8924C330.118 82.2673 329.73 82.6319 328.138 83.7756C327.304 84.3769 326.422 85.0505 326.286 86.156L325.239 85.8087L325.41 86.3018C324.846 86.8389 323.809 87.1077 323.324 87.5382C322.874 87.9348 322.825 88.0239 322.21 88.5375C321.753 88.9195 322.008 89.874 320.926 89.5298L321.157 90.0808C320.23 89.9671 318.601 90.8917 319.146 91.82C317.71 91.3849 318.23 92.2748 317.759 92.653C317.64 92.7481 317.239 92.4852 317.067 92.7309C316.992 92.8378 317.173 93.194 317.107 93.2425C316.947 93.3655 315.507 93.6691 315.282 94.0261C315.104 94.3052 315.27 94.8289 315.106 94.991C315.034 95.0643 313.679 95.5371 313.312 95.8105C312.286 96.5663 311.558 98.3444 310.394 97.9435C310.314 98.7636 310.025 98.9951 309.215 98.9239L309.303 99.734C307.596 99.7536 307.181 101.412 306.16 102.193C305.566 102.649 304.652 102.233 304.829 103.705L304.076 103.387C303.851 104.427 303.211 104.068 302.628 104.486L303.108 105.193C302.038 105.186 301.507 105.962 300.83 106.479C300.637 106.628 300.187 106.536 300.087 106.638C299.903 106.821 300.107 107.432 299.934 107.616C299.848 107.708 299.305 107.634 299 107.844C297.742 108.718 296.267 110.702 295.317 111.547C294.948 111.874 293.817 111.67 293.916 113.138L293.56 112.575C293.02 113.013 292.397 112.986 292.521 113.847L291.784 113.545C291.293 114.388 290.241 114.678 290.222 115.834L289.446 115.499C289.506 116.801 288.625 116.301 288.031 116.636C287.052 117.187 287.079 118.597 285.758 118.201L285.668 119.268L285.289 119.04C285.066 119.072 285.198 119.711 284.609 119.192L284.511 119.938C283.279 119.897 282.062 120.971 281.16 121.758C280.933 121.957 281.201 122.306 280.981 122.436C280.422 122.765 279.078 122.862 278.56 123.307C277.16 124.516 275.088 125.863 273.615 127.367C272.715 128.286 271.765 129.649 271.116 130.506C270.771 130.961 270.6 132.103 270.429 132.697L269.65 132.37C270.1 133.631 268.707 134.612 268.049 135.603C267.799 135.978 267.786 136.429 267.554 136.789C267.323 137.148 266.622 136.672 267.09 137.839L266.584 137.529C266.282 139.024 265.139 140.119 264.672 141.431L264.183 140.858L264.31 141.893L263.888 141.954L264.038 142.733L263.261 142.408C263.208 143.126 263.429 143.66 262.645 143.832L262.832 144.529L261.764 144.455L262.257 145.026C260.952 145.019 261.416 146.093 261.028 146.643C260.768 147.014 260.315 146.998 260.25 147.083C260.12 147.253 260.46 147.615 260.376 147.806C260.292 147.996 258.307 150.164 257.777 150.974C257.54 151.333 257.055 150.813 257.421 152.22C255.962 151.679 256.623 153.156 256.479 153.44C256.446 153.508 255.434 154.051 255.213 154.302C254.519 155.093 253.636 156.607 253.016 157.488C252.49 158.231 252.128 159.603 251.009 159.023L251.191 160.115L250.669 159.942L250.472 160.894L249.82 160.845L249.702 161.871L248.65 161.813L249.103 162.922L248.055 162.581L248.565 162.885L248.526 163.416C248.362 163.432 248.12 163.442 248.012 163.547C247.01 164.515 246.149 165.356 245.345 166.344C244.722 167.11 244.49 168.577 243.069 168.14L243.228 168.632L240.004 171.428C240.131 172.73 239.079 172.38 238.274 173.185C237.859 173.599 237.265 174.631 237.166 175.25L236.118 174.903L236.304 175.993C235.351 175.54 234.803 176.62 234.256 177.198C233.904 177.568 234.69 177.281 233.6 177.779C233.368 177.885 233.235 178.499 232.383 178.127L232.612 178.672L231.521 178.872L231.713 179.954L230.04 180.783L230.543 181.219C228.802 180.742 229.407 181.618 228.889 182.032C228.775 182.125 228.337 181.876 228.183 182.104C228.067 182.275 228.339 182.756 228.027 183.07C227.477 183.622 225.305 183.324 225.968 184.921L224.811 184.807L224.233 186.107C222.557 185.742 222.964 186.606 222.516 187.017C222.326 187.191 220.74 187.804 220.21 188.268C219.731 188.685 220.765 188.379 220.571 188.834C219.079 188.032 219.086 189.705 218.408 190.051C217.797 190.362 216.087 190.792 215.201 191.176C214.715 191.387 212.478 192.761 212.311 192.791C211.961 192.852 211.407 192.438 210.725 192.674C210.199 192.857 209.893 193.545 209.503 193.558C209.039 193.572 208.781 193.12 208.342 193.113C207.231 193.092 207.295 193.029 206.444 192.941C205.543 192.846 204.369 193.757 204.472 191.958C202.235 192.32 202.3 188.793 202.951 187.262L202.144 187.196C203.216 186.037 202.598 185.525 202.44 184.437C202.311 183.536 202.93 183.759 202.931 183.638C202.93 183.312 202.532 182.707 202.628 182.245C202.707 181.863 203.634 180.763 203.669 180.667C203.871 180.142 203.899 178.329 203.96 178.224C204.047 178.073 205.271 177.846 204.248 176.978L204.785 176.771L204.605 175.794L205.375 175.831C205.487 175.721 205.757 173.937 205.871 173.642C205.957 173.427 206.308 173.523 206.382 173.323C206.541 172.874 205.926 171.921 207.293 172.219L207.375 170.772C208.585 170.66 208.706 168.913 209.395 167.823C210.084 166.733 214.244 160.868 214.88 160.305C216.508 158.866 218.118 156.6 219.632 155.417C219.939 155.175 220.659 155.358 220.976 154.218L221.782 154.424L221.624 153.938C222.39 153.241 223.168 152.166 224.368 152.191L224.154 151.368C224.912 151.579 225.02 151.171 225.42 150.653L226.046 151.236L225.858 150.149L226.928 150.228L226.455 149.387C227.26 149.752 228.224 148.233 228.554 148.252C228.785 148.269 228.962 148.937 229.452 148.794L229.286 147.435L230.044 148.031C230.148 146.853 231.477 146.26 232.283 145.519L233.142 146.103C232.746 144.649 233.818 144.649 234.705 144.063C234.923 143.919 235.026 143.59 235.222 143.478C235.842 143.13 237.761 143.385 237.227 141.822C237.55 142.119 239.241 141.792 239.354 141.671C239.515 141.497 239.329 140.905 239.497 140.684C239.609 140.538 240.139 140.602 240.358 140.439C241.026 139.94 242.631 138.803 243.242 138.463C243.581 138.275 243.958 138.584 244.194 138.43C244.603 138.165 244.276 137.399 245.275 138.089C245.36 137.893 245.432 137.558 245.592 137.443C246.51 136.783 247.015 136.694 247.852 136.518C249.314 136.21 248.834 135.59 249.018 135.452C249.16 135.347 250.4 135.554 250.808 134.472L251.414 135.318L251.252 133.96L252.407 134.585L252.726 134.066L252.094 133.488C253.204 133.174 254.267 132.247 255.294 131.812C255.878 131.563 256.543 132.275 256.6 130.855L257.056 131.094L258.678 129.927C259.481 131.594 259.112 129.816 259.143 129.734C259.26 129.445 261.202 128.945 261.087 128.223L261.406 129.325L262.2 127.766L263.224 128.378C263.041 127.527 263.686 127.022 264.422 126.739C264.843 126.576 265.246 127.14 265.964 125.887L266.323 126.45L266.23 125.62C267.103 125.637 267.458 124.747 267.805 124.559C267.971 124.47 268.315 124.715 268.748 124.494C270.576 123.578 271.763 121.804 272.715 120.109C276.779 112.872 281.84 104.494 287.086 97.172C288.464 95.2509 290.138 93.4474 291.489 91.5187C291.718 91.19 291.754 90.8527 291.407 90.8495C291.27 90.8478 290.723 91.5688 290.385 91.7039C289.917 91.8912 289.227 91.3062 288.973 92.535L288.215 92.2231L287.862 93.4333L287.068 93.2171L286.968 93.96C285.764 94.0337 285.701 94.2763 285.185 95.2721L284.256 95.1724C283.971 96.6799 283.605 95.8295 282.986 96.1686C282.615 96.3715 281.61 97.3535 281.058 97.7313C279.178 99.0194 276.189 101.172 274.241 102.054C272.293 102.935 269.993 103.192 267.796 102.981L267.604 102.661C267.499 101.993 267.479 100.297 266.95 99.9091C266.755 98.9561 267.243 99.2507 267.569 98.7831L266.769 98.7183L267.321 98.4923L266.976 97.9412C265.57 98.2332 265.017 99.7153 264.437 100.097C263.857 100.478 262.567 99.6995 262.522 101.374C261.513 100.813 261.63 101.611 260.971 102.032C259.216 103.155 256.952 104.437 255.385 105.136C254.782 105.406 254.434 106.054 254.344 106.095C254.237 106.146 253.903 105.852 253.609 105.962C252.84 106.251 252.922 107.485 251.655 107.074L251.561 107.811C250.415 107.403 250.275 108.157 250.012 108.264C247.87 109.125 245.172 110.224 243.116 110.673C242.324 110.844 241.566 110.187 241.258 111.125C240.404 109.952 239.098 111.316 238.37 110.102C237.141 111.871 235.778 108.935 234.249 109.527L234.576 108.744L233.771 108.685C234.352 107.652 233.783 108.028 233.59 107.654C232.982 106.485 233.411 106.66 233.742 105.446L232.926 105.652C233.365 104.937 232.997 104.157 233.183 103.505C233.327 102.993 233.918 102.548 233.964 102.104C234.006 101.736 233.8 99.5576 233.998 99.3109C234.248 98.9979 235.313 98.8773 234.858 97.7196L235.659 97.7677C236.048 97.1278 235.144 97.2576 235.152 97.0418C235.202 95.9524 235.977 96.3498 236.033 96.309C236.704 95.8305 236.112 94.9774 236.302 94.3058C236.446 93.7994 238.36 92.0446 236.895 91.9332C237.168 92.6307 237.269 92.256 236.751 92.4817C227.827 96.3867 219.18 102.043 209.514 104.199L209.305 103.652L208.331 103.833L208.391 103.025L207.301 103.217C207.752 102.16 206.84 102.101 206.713 101.704C206.469 100.947 207.582 99.4922 206.242 99.3564L207.116 97.3614C207.2 97.0136 206.956 96.6808 206.978 96.3453C206.996 96.1022 208.148 96.2493 207.202 95.9629L205.924 96.3852L206.109 96.8822C204.939 96.9361 203.292 98.4887 202.507 98.6807C202.136 98.7712 201.765 98.457 201.737 98.4887C201.673 98.5654 201.8 99.0329 201.624 99.2166C201.26 99.5998 196.998 100.824 196.225 100.961C194.224 101.315 189.425 100.94 188.096 101.406C187.42 101.646 186.201 102.623 185.465 103.001C182.145 104.7 172.618 110.06 169.318 109.718C168.976 109.681 167.972 108.93 167.348 109.145C167.761 108.647 167.983 108.217 168.169 107.593C168.784 105.531 169.424 104.272 171.193 102.402C171.613 101.958 172.403 102.101 172.244 101.151L173.184 101.237L173.39 100.159L174.435 100.507L174.514 99.4335C175.411 99.8483 176.454 99.566 176.201 98.485L177.229 99.0979L177.303 98.3166L178.626 98.3893L178.133 97.8189C178.531 97.8203 180.119 97.7553 180.402 97.6414C180.835 97.4683 180.813 97.0452 180.916 96.9798C181.007 96.9219 181.594 97.3925 182.039 97.285C182.401 97.1966 182.44 96.6347 182.572 96.5602C182.718 96.4755 185.617 96.443 185.894 96.4888C186.58 96.6015 187.882 97.2655 188.22 97.1922C188.357 97.163 189.681 95.8112 189.844 95.5844C190.518 94.6481 192.203 91.8815 192.293 90.8542C192.452 89.0507 192.073 87.7667 190.648 86.6186C189.683 85.8418 187.416 85.2074 186.185 85.1865C183.787 85.1437 173.296 89.9412 170.741 91.3312C169.737 91.8777 164.127 96.0619 163.697 96.1565C163.5 96.2009 163.259 95.8571 163.002 95.9308C161.985 96.2236 156.455 103.406 155.602 104.72L150.624 113.289L150.131 112.991C150.457 114.415 149.048 115.502 148.407 116.668C143.821 125.025 139.238 132.958 135.503 141.552C134.605 143.618 133.499 147.462 132.192 148.922C132.128 148.993 132.195 150.316 131.986 150.792C130.988 153.07 129.842 155.725 128.758 158.103C126.299 163.501 124.706 169.953 122.527 175.951C122.387 176.334 121.653 178.033 121.489 178.237C121.412 178.335 119.598 179.673 119.476 179.698C119.251 179.743 118.443 179.455 118.047 179.62C117.849 178.9 118.153 177.973 118.121 177.383C118.036 175.843 117.762 176.62 118.303 174.882C118.465 174.36 118.528 173.316 118.726 172.724C118.938 172.102 120.794 170.194 119.545 170.298L119.241 170.812L119.645 169.249L120.427 169.282L119.966 168.048C120.891 167.863 120.497 167.126 120.661 166.349L121.445 166.393C120.818 165.635 121.48 163.574 121.802 162.592C122.261 161.201 123.527 159.921 123.321 158.88L123.919 158.599C124.033 158.011 123.303 157.465 124.163 156.894C124.336 158.11 125.414 156.683 124.323 156.51C125.25 155.73 124.866 154.892 125.031 154.18C125.076 153.986 125.491 154.017 125.581 153.827C126.75 151.354 127.244 148.735 128.306 146.352C128.454 146.017 128.959 146.125 129.094 145.781C129.262 145.355 129.446 143.635 129.743 143.022C129.899 142.699 130.905 140.773 131.001 140.682C131.257 140.434 131.641 140.474 131.962 140.489L131.229 139.491L131.799 139.249L131.569 138.58L132.926 138.405L132.295 137.819L131.592 138.306L133.383 135.876L132.89 135.306C133.759 134.988 134.283 134.007 134.136 133.12L134.929 133.156C134.904 132.848 135.054 131.319 135.104 131.202C135.155 131.085 136.197 130.111 136.372 129.742C137.248 127.907 137.855 126.294 138.763 124.704C139.075 124.157 139.859 123.332 139.896 123.245C139.973 123.074 139.654 122.696 139.89 122.228C140.127 121.759 140.918 121.444 141.433 121.519L140.693 120.66L141.526 120.573C141.208 119.038 142.033 119.287 142.526 118.57C142.975 117.921 143.475 116.685 143.984 115.835C147.603 109.792 151.222 104.353 155.061 98.7874C155.478 98.1832 157.003 95.1042 157.171 94.9621C157.296 94.8561 157.74 95.0351 157.865 94.9348C157.972 94.85 158.382 92.936 158.8 92.3656C159.18 91.8487 159.856 91.7329 159.981 91.5539C160.294 91.1051 160.66 90.1375 161.166 89.5821C161.346 89.3847 161.57 89.3086 161.832 89.3308L161.356 88.4947C162.161 88.7482 162.751 87.9377 162.523 87.2324L163.596 87.3062C163.099 86.8311 163.212 86.1342 163.764 85.7592C163.876 85.6832 164.795 86.2458 165.062 85.6615L164.028 85.1858C165.252 84.8073 165.251 81.9439 167.183 82.4468L166.69 81.8764C167.559 82.0672 167.142 81.0332 167.484 80.3223C167.663 79.9478 169.259 78.0654 169.702 77.4491C170.505 76.3285 171.446 75.1281 172.352 73.9813C172.911 73.2725 172.706 72.2964 174.09 72.7164C173.715 72.1042 174.419 71.4594 174.941 71.175C176.13 70.524 175.441 71.9201 176.878 71.3101L176.549 71.9376L177.057 72.5288C176.237 73.0103 176.024 73.8741 175.523 74.5451C172.321 78.8261 169.857 84.0189 166.527 88.2372L163.717 92.9743C164.769 93.4401 165.012 91.8648 165.249 91.7279C166.703 90.8999 168.623 90.2076 170.044 89.13C170.76 88.5873 170.538 87.7616 171.843 88.4539L171.637 87.6351L173.8 87.52L173.589 86.6979C174.125 87.0354 174.43 86.9148 174.985 86.731C176.297 86.3 178.115 84.4846 179.288 84.4282C179.608 84.4126 180.095 84.769 180.156 84.7314C180.212 84.699 180.343 84.1804 180.631 83.9601C181.195 83.527 182.685 83.5756 182.952 83.483C183.49 83.2952 183.533 82.5567 184.596 83.1945L184.12 82.3556L185.145 82.9655L185.348 82.4185L186.207 82.7295L186.279 82.2487L186.806 82.2877L186.782 82.8057L187.31 82.8561L187.216 82.3097C187.309 82.3025 187.402 82.3009 187.486 82.3297C187.925 82.4661 188.094 82.9085 188.51 82.9591C188.721 82.9831 188.533 82.1178 189.219 82.4609L189.293 83.2756C190.166 82.4636 191.184 83.1684 192.027 83.6636C192.244 83.7921 192.273 84.1286 192.4 84.2251C192.968 84.6522 193.735 84.3605 194.172 85.6096C194.329 86.0596 194.048 86.4153 194.094 86.548C194.112 86.6027 194.494 86.6647 194.536 86.8196C195.85 91.8455 193.807 94.0432 191.542 98.27L193.243 98.6799L193.568 98.142C193.9 98.7735 196.203 98.5002 196.595 98.3185C196.717 98.2629 196.829 97.8103 197.104 97.606C197.787 97.0945 196.919 98.5588 197.594 98.179C198.912 97.4393 200.282 97.0603 201.556 96.3173C201.826 96.1602 202.15 96.1253 202.457 96.1115L202.246 95.2922C203.246 95.9002 203.129 95.0486 203.402 94.9255C203.518 94.875 203.748 95.0213 203.865 94.9514C204.767 94.4225 208.015 91.6144 209.202 90.5643C212.971 87.23 216.103 82.7274 219.634 79.117C220.547 79.5752 221.284 78.4861 221.213 79.3688C222.66 79.3495 222.019 81.4572 221.599 82.4293C220.497 84.9833 216.334 89.1764 214.496 91.7939C214.201 92.2132 213.205 92.2405 213.713 92.9048L212.934 92.864C212.792 93.0024 212.92 93.6637 212.819 93.9991C212.789 94.1036 211.29 95.3498 211.197 95.4805C211.128 95.5738 210.073 97.3361 210.026 97.445C209.945 97.6328 209.805 98.9881 209.841 99.1819C210.064 100.407 212.226 101.179 212.811 100.574C212.933 100.448 212.824 100.06 213.097 99.853C213.338 99.6713 214.089 99.55 214.429 99.4234L213.817 100.46C215.009 99.9525 214.977 98.9498 216.472 99.1814C217.311 98.749 215.608 98.7155 216.527 98.3706C217.383 98.0518 218.053 98.3797 218.121 98.3341C218.233 98.261 218.345 97.3898 218.752 97.1895C218.871 97.1309 220.523 97.3769 220.913 97.2091L220.44 96.3705L221.729 96.7104C222.035 95.3028 223.003 96.1136 223.429 95.9231C224.244 95.5536 223.111 95.4949 223.202 95.364C224.714 94.4279 226.201 94.4313 227.536 93.1225L227.892 93.6856C227.778 92.8117 228.382 92.862 228.931 92.4166L229.267 93.2479L229.77 91.9393C230.096 93.2138 230.619 92.2354 230.746 91.4693L231.526 91.7968L231.565 91.1169C232.862 91.4574 232.558 90.4177 232.888 90.2736C233.291 90.0955 234.11 90.2714 234.604 89.9933C234.926 89.812 235.042 89.3036 235.347 89.1126C236.064 88.6684 237.013 88.5279 237.614 87.6733C238.076 89.2221 238.387 87.5227 238.662 87.2901C238.809 87.1661 239.171 87.2295 239.374 87.0984C239.936 86.7298 239.459 86.1802 240.767 86.8251C240.39 85.7125 241.711 85.8104 242.226 85.3906C243.067 84.7055 245.247 81.8266 246.179 80.7464C249.835 76.5102 253.889 71.2189 257.565 66.335C258.82 64.6662 260.144 63.0166 261.593 61.1205C265.511 56.0017 269.509 50.2482 273.969 45.518C274.498 44.9559 274.934 45.4293 274.573 44.3601C277.259 42.7439 279.836 37.9557 282.275 36.265C282.697 35.9731 283.024 36.0199 283.493 36.0799L282.991 35.6408C283.726 35.4003 284.071 34.7177 284.526 34.3525C286.825 32.5165 289.177 30.6873 291.681 29.1391C292.248 28.7877 292.562 27.5662 293.753 28.2136C292.971 26.2899 296.009 27.0601 296.279 26.7823L295.804 25.9434C296.502 26.0401 296.796 26.1968 297.047 25.4904L297.275 26.0496C298.249 25.1186 299.602 25.1515 300.128 23.8361L300.485 24.3992C300.692 23.3777 302.119 23.5874 302.896 22.9678C303.112 24.06 303.789 23.6605 303.301 22.7252C304.795 23.5833 308.171 21.6895 308.036 24.155L309.12 23.9656C308.512 25.0248 309.39 25.1629 309.535 25.5558C309.773 26.2 309.735 29.7742 309.451 30.2477C309.326 30.4548 308.911 30.4241 308.897 30.5748C308.742 32.5078 308.482 32.8509 307.597 34.5753C307.473 34.819 307.493 35.1577 307.461 35.4335L306.724 34.5724C307.073 35.3401 306.214 36.5297 305.709 37.265C304.927 38.4069 303.625 39.5215 302.696 40.5345C302.126 41.1526 301.723 42.73 300.493 42.4675L300.659 43.525C300.289 43.596 299.968 43.7407 299.693 44.007C297.562 46.0801 295.127 49.2548 292.987 51.0688C292.464 51.5133 291.855 50.8782 291.931 52.3168L291.209 52.3364L291.103 53.0928L290.323 52.7597C290.424 54.3126 288.531 54.1443 288.764 55.6115L288.275 55.0385C288.128 55.539 287.707 56.0052 287.344 56.3661C286.407 57.2997 285.379 58.3448 284.469 59.213C283.429 60.2037 281.238 61.1513 281.257 62.5998L280.5 62.0042C280.585 63.5363 279.282 63.3527 278.592 64.0124C278.215 64.3723 278.1 65.0466 277.846 65.1879C277.072 65.6167 277.544 64.9604 276.612 65.9198C273.677 68.9337 269.463 71.0998 266.43 74.1037C264.235 76.2789 258.951 79.8354 255.577 81.8165C252.927 83.3706 249.802 84.516 247.386 86.2337C246.845 86.6179 246.2 87.7952 245.694 88.1905C245.15 88.6166 244.88 88.4055 244.382 89.1947C243.712 90.2634 242.832 90.9401 242.336 91.7013C241.874 92.4117 242.063 93.2996 241.78 93.8406C241.679 94.0298 240.246 95.1038 240.183 95.1919C240.005 95.44 240.298 95.9197 240.2 96.2497C240.111 96.5465 239.712 96.7502 239.581 97.117C239.418 97.5826 240.143 98.0016 238.83 98.4073L239.318 98.9661C238.402 99.6822 238.664 101.182 237.525 101.542C238.469 102.267 237.492 102.852 237.408 103.686C237.076 106.884 241.815 106.715 243.793 105.915L244.012 106.474L245.199 105.463L246.078 105.82L246.17 105.065C246.767 105.169 247.261 104.75 247.698 104.673C248.254 104.576 248.338 105.378 249.038 104.174L249.939 104.488C249.896 103.172 251.21 103.862 251.41 102.551L252.052 102.736L252.373 102.263L253.305 102.579C253.158 101.121 253.971 101.524 254.647 101.068C254.912 100.889 255.009 100.407 255.137 100.343C255.516 100.155 256.214 100.479 256.429 100.38C256.496 100.348 255.922 99.6596 257.182 99.3652C258.023 99.169 256.996 100.099 257.382 100.184L257.898 98.89C258.158 98.8305 258.437 98.9552 258.685 98.9342C258.598 99.0879 258.208 99.4328 258.514 99.4639C258.921 99.5671 259.028 99.2209 259.22 98.9739C259.26 98.9234 259.46 98.9495 259.495 98.8593L259.524 98.4597L258.992 98.4203L258.987 98.4059ZM305.893 26.764C305.132 25.5808 302.308 26.5574 301.31 26.9499C299.238 27.7658 294.125 30.8319 292.215 32.2162C291.099 33.0242 290.367 34.8892 288.98 34.5897L289.194 35.4092C288.868 35.3429 287.288 36.17 287.111 36.3311C286.661 36.7389 284.756 39.4526 284.219 39.8231C283.747 40.1505 282.962 39.7018 283.117 41.1632L282.646 40.9007C282.302 42.21 280.334 42.4238 280.784 43.6795L280.026 43.6738L279.922 44.4332L279.142 44.1057C279.645 45.3316 277.976 46.0031 277.327 46.8598C277.091 47.1711 276.543 48.6254 276.372 48.7504C275.732 49.2116 276.025 48.0531 275.617 48.1606C276.071 49.1383 275.351 49.9757 274.448 49.4227L274.673 50.347C273.682 50.6361 273.902 51.3352 273.472 51.9271C272.96 52.6366 271.25 53.9373 271.186 54.0843C271.072 54.3316 271.4 54.7071 271.319 54.8163C270.082 56.4724 268.057 58.6546 266.649 60.3795C265.611 61.6485 264.662 63.1068 263.271 63.9591C263.931 65.0337 262.557 65.3168 262.392 66.5578L261.356 66.5176C262.24 67.7801 261.565 67.0951 261.277 67.498C260.674 68.3385 260.094 69.7819 259.431 70.6825L259.223 69.8607C258.38 69.964 258.879 70.9002 258.72 71.1919C258.549 71.4995 257.98 71.5107 257.818 71.7208C256.815 73.0176 256.893 73.9198 255.423 75.0472C255.316 75.1292 254.193 77.0888 254.142 77.2143C254.042 77.4654 253.968 78.508 253.718 78.8885C254.669 79.209 254.602 78.3358 255.265 77.9381L255.892 78.5101C255.64 76.3614 256.841 77.3552 257.72 76.9876C258.226 76.775 257.944 76.4114 258.222 76.1397C259.022 75.3617 259.794 75.9078 259.855 75.8448C259.953 75.7369 259.769 74.7032 260.637 74.2534C261.059 74.0346 261.498 74.424 261.574 74.3509C261.631 74.2933 261.533 73.8449 261.702 73.641C262.225 73.011 264.219 72.0769 264.938 71.5598C265.178 71.3865 265.166 70.8602 265.419 70.6653C265.671 70.4705 267.109 70.0825 267.549 69.938L267.075 69.1021C267.458 69.0855 267.841 68.9818 268.159 68.7638C270.435 67.2015 272.307 65.1597 274.195 63.5687C274.608 63.2199 275.569 63.0186 276.127 63.0234C275.582 62.3929 277.513 60.6056 278.035 60.2874C278.282 60.1371 278.688 60.2936 278.75 60.2532C278.776 60.2355 278.535 59.8918 278.598 59.7699C278.637 59.6914 279.735 58.8286 279.948 58.6392C280.134 58.4732 280.013 58.7003 280.612 58.073C281.259 57.396 281.867 56.7049 282.675 56.2365L283.031 56.7996C282.613 55.4058 284.718 55.1768 285.013 54.749C285.075 54.6582 284.759 54.2751 285.099 53.845C285.347 53.5318 287.181 51.9087 287.669 51.4841C288.289 50.9455 289.174 51.1459 289.207 49.7098L289.984 50.0427C290.305 47.9394 292.667 46.9089 293.984 45.6634C294.279 45.3846 294.628 44.4269 295.158 43.9632C295.439 43.7171 295.94 43.8048 296.043 43.6945C296.293 43.4235 296.41 42.6089 297.31 41.872C298.268 41.0887 299.654 39.6207 300.643 38.4126C302.229 36.4761 303.684 33.9285 305.281 32.4199C304.694 31.1513 305.488 31.6176 305.757 31.2779C305.878 31.1238 305.65 30.1544 306.009 29.8129L305.483 29.6165C305.927 29.1043 306.147 28.8874 305.874 28.1844L306.663 28.0939C306.944 27.2437 306.174 27.7008 305.963 27.4491C305.849 27.3143 305.99 26.9313 305.892 26.7751L305.893 26.764ZM294.596 27.7253L294.635 27.1916L294.373 27.1722L294.334 27.7059L294.596 27.7253ZM261.29 74.5884L260.758 74.5489L260.738 74.8116L261.271 74.851L261.29 74.5884ZM252.897 79.0861L253.456 78.7202L253.104 78.0253L252.894 79.0859L252.897 79.0861ZM171.97 79.289L172.009 78.7553L171.747 78.7359L171.708 79.2696L171.97 79.289ZM289.614 87.7382L289.082 87.6988L289.043 88.2325L289.614 87.7382ZM192.049 84.0136L191.272 83.6835L191.232 84.2173L192.029 84.2763L192.049 84.0136ZM268.592 92.1124L268.06 92.073L268.041 92.3357L268.573 92.3751L268.592 92.1124ZM207.869 95.4307L207.337 95.3912L207.318 95.6539L207.85 95.6934L207.869 95.4307ZM268.205 100.977L267.672 100.938L267.653 101.2L268.185 101.24L268.205 100.977ZM159.342 93.7179L159.381 93.1842L159.119 93.1648L159.08 93.6985L159.342 93.7179ZM294.373 106.959L293.841 106.92L293.802 107.454L294.373 106.959ZM184.71 99.6438C183.746 98.409 176.217 101.706 174.867 102.463C174.918 104.083 174.247 103.114 173.523 103.659C173.209 103.894 171.882 106.03 173.163 105.577C173.928 105.308 174.573 104.535 175.634 104.366C176.167 104.282 176.051 104.476 175.788 104.78L176.255 104.943C175.895 103.908 176.543 103.855 177.316 103.403L177.413 103.942L177.803 103.979C178.228 103.007 178.857 103.29 179.416 103.005C180.845 102.277 182.01 101.034 183.593 100.207C184.021 99.9833 185.156 100.208 184.713 99.6412L184.71 99.6438ZM235.161 107.959L235.201 107.425L234.939 107.406L234.899 107.94L235.161 107.959ZM177.114 104.203L176.582 104.164L176.562 104.427L177.094 104.466L177.114 104.203ZM235.639 108.809L235.107 108.77L235.087 109.032L235.619 109.072L235.639 108.809ZM156.222 103.192L155.69 103.153L155.65 103.687L156.182 103.726L156.222 103.192ZM154.074 106.807L153.542 106.767L153.502 107.301L154.074 106.807ZM279.542 118.527C279.991 118.367 280.469 118.003 280.419 117.513C279.97 117.674 279.492 118.038 279.542 118.527ZM146.933 112.474L146.973 111.94L146.411 112.303L146.933 112.474ZM148.934 114.513L148.402 114.473L148.362 115.007L148.894 115.047L148.934 114.513ZM263.752 128.406L263.811 127.604L263.549 127.585L263.49 128.387L263.752 128.406ZM144.574 122.544L144.613 122.01L144.351 121.99L144.312 122.524L144.574 122.544ZM222.817 158.53C221.99 159.289 220.287 160.341 219.705 161.16C219.386 161.608 219.259 162.414 219.039 162.659C218.82 162.904 218.326 162.763 218.057 163.03C217.694 163.388 217.574 164.363 217.505 164.878L216.458 164.533C217.102 165.93 215.654 166.159 215.277 166.665C215.177 166.801 215.399 167.172 215.189 167.55C214.769 168.302 212.308 170.584 211.931 171.402C210.295 174.965 208.06 179.031 207.344 182.608C207.238 183.14 206.932 185.261 206.949 185.67C206.998 186.901 207.794 187.916 208.621 188.744L208.981 188.72C209.122 187.846 210.853 188.901 211.708 188.408L211.83 187.397C212.575 187.331 212.993 187.362 213.358 186.665L214.787 187.043L214.307 186.341C214.709 185.523 216.158 185.74 216.48 185.522C216.515 185.496 216.241 184.894 216.71 184.766C216.867 184.722 217.072 184.827 217.245 184.795L217.604 185.366L217.511 184.536C218.03 184.184 218.673 184.285 219.221 184.033C220.039 183.658 219.902 182.179 221.299 182.676L221.111 181.585C221.937 182.237 222.629 180.914 223.365 180.325C224.169 179.679 224.66 179.142 225.458 178.468C225.523 178.411 226.805 177.871 227.021 177.974L226.518 177.538C226.761 177.171 227.281 177.305 227.541 177.125C229.645 175.648 231.8 173.136 233.797 171.297C234.747 170.42 235.844 169.684 236.716 168.723C236.965 169.112 236.613 169.404 237.343 169.306L237.276 168.245C246.521 159.581 253.691 149.856 260.572 139.407C262.252 136.857 264.591 134.512 265.408 131.496C264.989 131.37 265.274 131.835 264.902 131.978C263.685 132.447 262.422 133.045 261.517 133.268C260.47 133.527 260.825 134.037 260.599 134.326C260.481 134.475 258.005 135.219 257.161 135.727C256.443 136.159 255.64 137.126 255.541 137.177C255.476 137.212 254.987 136.931 254.591 137.059C254.195 137.187 254.162 137.631 253.915 137.759C253.111 138.175 252.113 137.842 251.922 139.39C250.976 138.699 251.256 139.386 250.795 139.675C249.217 140.665 246.604 141.904 245.008 142.612C244.564 142.81 244.068 142.922 243.627 143.128L243.817 143.628C239.44 145.493 235.542 148.424 231.87 151.291C231.712 151.414 231.319 151.343 231.158 151.477C230.916 151.681 230.447 152.526 230.223 152.869L229.998 152.318L229.465 152.279C229.619 153.195 228.952 153.045 228.561 153.406C226.598 155.211 224.747 156.754 222.82 158.525L223.342 158.695L222.783 159.059L222.823 158.522L222.817 158.53ZM141.059 122.826L140.527 122.786L140.508 123.049L141.04 123.088L141.059 122.826ZM249.773 135.733L249.241 135.693L249.201 136.227L249.773 135.733ZM226.907 150.479L226.374 150.44L226.355 150.703L226.887 150.742L226.907 150.479ZM126.279 162.702L125.747 162.662L125.708 163.196L126.279 162.702ZM122.436 163.76L122.475 163.226L122.213 163.207L122.174 163.741L122.436 163.76ZM122.077 175.864L122.424 174.813L121.58 175.425L122.077 175.867L122.077 175.864ZM215.609 186.837L215.649 186.303L215.387 186.284L215.347 186.818L215.609 186.837ZM212.858 187.715L212.325 187.675L212.286 188.209L212.818 188.249L212.858 187.715ZM203.511 190.521L203.018 189.948L202.979 190.481L203.511 190.521Z" fill="currentColor"/>
<path d="M82.3065 37.8735C82.3455 37.8398 82.321 37.4896 82.6368 37.2348C82.8126 37.0933 83.2251 37.1969 83.3863 37.1021C83.4361 37.0721 83.1858 36.4803 83.632 36.356L84.5428 36.6932C84.2564 35.2642 85.7865 35.6361 86.0829 34.3964L86.8015 34.6801L88.8754 32.7038L89.3652 33.2768C89.2811 32.8238 90.0228 32.0021 90.3699 31.817C90.8422 31.5682 93.6226 30.1136 93.8227 30.0975C94.2176 30.0621 94.6973 30.432 94.9824 30.3267C95.2676 30.2214 96.2587 28.8309 96.7812 28.6223L97.7443 29.0477C97.7689 27.4676 98.8058 28.1064 99.1865 27.921C99.387 27.8235 99.4004 27.3777 99.8402 27.2276C100.28 27.0776 100.519 27.6348 101.022 26.5958L101.628 27.45C101.568 26.5604 102.025 26.1053 102.709 25.6446L103.198 26.2176C104.078 25.3078 105.922 24.326 106.886 25.4146L106.946 24.607C107.885 24.907 108.158 25.714 109.311 25.4678L111.779 28.3426L110.897 29.3535L111.704 29.2784C111.373 29.8186 111.642 30.4933 111.522 30.948C111.451 31.2265 111.021 31.3858 110.972 31.7811C110.952 31.9454 111.467 31.9161 111.501 32.1322C111.601 32.7156 111.207 33.2681 111.096 33.8135L110.339 33.2179C110.337 33.5549 110.183 33.9312 110.333 34.2458C110.403 34.3943 110.919 34.1684 110.772 34.5959L110.257 34.6729C110.798 35.6852 109.759 36.3978 109.709 37.4534L108.952 37.4282L109.464 37.7332C109.507 37.8712 108.631 39.7901 108.449 40.1306C104.815 46.8665 98.5979 53.751 93.1441 58.4666C92.2401 59.2482 89.8616 61.4042 89.0045 61.8549C88.6197 62.0568 88.4184 61.8255 88.065 61.7544C88.1972 63.3742 86.4677 63.5748 85.5464 64.3636C84.2631 65.4627 82.9299 66.8954 81.8706 67.7694C75.4908 73.0346 67.9387 77.6734 60.3857 80.8116C60.111 80.9261 59.8317 81.9367 58.6489 81.4135C59.0684 82.5208 57.7148 82.3755 57.1629 82.6775C48.9817 87.1488 40.4375 90.2417 32.3006 94.8709C29.1535 96.6609 26.7407 100.677 24.4552 103.506C23.8783 104.222 22.95 104.083 23.2528 105.744C23.7487 105.82 23.6142 104.95 23.9161 104.77C24.1303 104.64 24.9336 104.725 25.373 104.58C26.0907 104.347 26.2718 103.641 27.1282 104.145L26.9229 103.324L27.6794 103.624L28.1756 102.902C28.5857 102.964 29.0321 103.328 29.4516 103.224C29.5572 103.198 30.7649 102.288 30.9406 102.261C31.5243 102.172 32.1165 102.233 33.0033 102.099C33.72 101.992 35.7149 102.104 35.8379 102.031C36.1043 101.877 37.5269 100.184 37.5282 101.679L37.7873 101.698C38.1641 99.2588 42.5369 102.668 42.5488 103.037C42.5684 103.567 41.8924 103.994 42.6683 104.752L42.1082 104.862C42.7769 106.198 41.7897 106.476 41.2965 107.347C41.0837 107.725 41.2756 107.63 40.8015 108.319C39.3812 110.398 37.7869 112.027 36.2077 113.981C36.0413 114.185 35.4503 114.448 35.8808 114.763C36.5308 113.401 37.945 114.582 38.2942 112.894L39.0749 113.095L39.8638 111.824L40.089 112.378C40.8063 111.846 41.5762 111.06 42.2801 110.559C42.6349 110.307 44.1243 109.111 44.2401 109.06C44.6629 108.875 45.0981 109.051 45.3028 108.973C45.3576 108.952 45.0995 108.275 45.6468 107.847C45.9975 107.575 46.4285 107.77 46.4822 107.726C46.5596 107.664 46.0865 106.677 46.8232 106.678L46.8975 107.49L47.381 106.447L48.1578 106.777C47.8233 104.94 50.7746 105.414 50.8065 103.736L51.583 104.069L51.67 103.311L53.245 103.38L53.0601 102.585C53.609 101.946 54.8291 102.191 54.9141 102.141C54.999 102.091 55.2911 101.211 55.5053 100.929C55.9833 100.301 58.7203 98.6013 59.5378 98.0409C61.7751 96.5067 63.7779 94.9607 66.2632 93.4814C66.5651 93.3014 66.5517 92.5361 67.5631 92.8387C67.8318 92.9176 67.8008 93.7526 68.3766 93.9583C69.3099 94.2944 70.1139 93.4632 70.9291 93.237L70.4166 92.9321L72 91.5629L72.8879 92.171C73.1608 91.323 72.2106 91.8595 72.4277 91.1984C73.2574 91.0407 73.6434 90.3303 74.1777 90.0384C75.2055 89.4766 76.0049 89.3504 76.9174 88.8701C80.2007 87.1324 82.8715 86.6278 86.6139 87.1636C87.4485 87.2816 87.384 86.7907 88.105 87.6084C90.1412 87.1242 90.7745 83.9088 93.2742 83.7091C93.9422 83.6546 93.5147 83.9798 93.3654 84.2554L94.8203 84.6217C94.8326 84.985 94.8965 85.4084 94.7892 85.7602C94.061 88.1396 89.4983 92.8144 87.7783 95.081C86.5239 96.7358 83.5199 100.489 83.3042 102.342C83.243 102.866 83.4224 104.377 83.9596 104.537C87.6481 104.288 90.7421 103.177 93.9068 101.338C97.1769 99.4386 100.299 97.0034 103.664 94.9879C104.046 94.7605 103.636 94.2384 104.676 94.8015C104.741 93.3874 106.664 93.3022 107.56 92.7785C110.14 91.2725 112.659 89.3714 114.998 87.7436C115.247 87.5709 115.413 87.0212 115.752 86.8384L116.39 87.3043L116.893 85.9957L119.829 86.2188C119.818 85.538 119.684 84.5053 120.243 83.9932C120.568 83.6969 120.998 83.9395 121.084 83.884C121.125 83.859 120.872 83.4469 121.081 82.9003C121.335 82.2307 122.927 80.5167 122.95 80.3526C123.037 79.679 124.039 78.0701 124.716 77.2098C125.071 76.7585 126.578 75.822 126.669 75.6883C126.852 75.4152 126.408 74.7445 126.669 74.3704C126.738 74.2688 127.249 74.2505 127.467 73.9968C127.865 73.5346 127.978 72.7647 128.653 72.4297L129.689 72.9279L128.939 72.2036L130.036 71.883L129.011 71.2676C129.78 71.2122 130.573 70.8719 130.718 70.0425L131.473 70.6379C131.252 69.9051 132.648 68.921 133.026 69.674C133.368 70.3541 131.702 70.8741 131.896 71.7989C121.877 87.7389 113.115 104.764 104.644 121.659C103.835 123.274 102.659 126.03 101.793 127.394C101.688 127.56 101.602 127.736 101.434 127.853L100.664 127.389C100.514 128.319 101.471 127.62 101.026 128.823C99.2714 131.481 98.237 135.27 96.5499 137.888C96.17 138.478 95.6073 138.585 95.5753 138.639C95.5111 138.749 95.7675 139.108 95.7094 139.287C94.7594 142.24 92.9331 145.223 91.6962 147.964C88.9307 154.096 86.3275 160.191 84.08 166.476C83.6488 167.684 82.1976 173.128 81.6079 173.638C81.56 173.68 80.8922 173.315 80.546 174.018L81.0264 174.719L79.784 175.153C79.5975 175.136 79.1299 174.036 79.0664 173.759C78.7258 172.231 79.4918 170.551 79.7926 169.061C81.1561 162.267 83.6476 155.562 86.3398 149.248C86.9128 147.905 87.653 146.535 88.1111 145.532C88.5087 144.665 88.6958 142.934 89.8093 143.295L89.8489 142.761L89.3239 142.587C89.8706 142.052 90.424 141.427 90.7584 140.732C92.215 137.71 93.6963 132.88 95.7767 130.514C95.8929 130.382 96.2791 130.388 96.424 130.171L95.6669 129.575C97.6429 128.05 97.3061 125.072 99.3253 123.645L98.8128 123.34C99.0108 123.124 99.4009 122.965 99.5288 122.713C101.039 119.72 102.335 116.821 103.847 113.814C103.939 113.629 104.268 113.62 104.288 113.577C104.573 112.974 103.612 111.99 105.002 112.331C104.852 111.896 105.185 110.729 105.406 110.386C105.628 110.043 106.152 110.337 106.233 110.273C106.352 110.178 106.009 109.557 106.031 109.336C106.041 109.197 106.446 109.246 106.568 109.005C106.87 108.409 107.574 106.233 107.673 106.109C107.93 105.782 108.675 106.203 108.255 104.764L109.194 104.833C109.261 104.184 109.632 102.584 110.056 102.118C110.373 101.768 110.804 102.047 110.878 101.991C110.97 101.919 110.69 101.35 110.755 101.077C110.901 100.467 111.584 99.8007 111.634 99.0795L112.411 99.4096C112.409 99.0217 112.228 98.7386 112.343 98.3256C112.551 97.5908 114.232 94.4165 114.71 93.5668C114.913 93.2081 115.174 92.9745 115.581 92.2095C115.841 91.7202 116.412 91.9142 116.251 91.0677L113.37 93.3888L112.585 93.5049L112.804 94.0325C111.593 93.8079 111.766 95.369 110.634 94.7006C110.276 96.3882 108.068 96.6601 106.81 97.4183C103.681 99.3051 100.216 101.681 97.4375 103.521C93.6462 106.028 88.8449 108.743 84.1458 108.906C84.0138 108.911 84.1052 108.471 83.9304 108.41C83.6216 108.306 82.397 108.159 82.6832 108.795L82.4241 108.776C82.2784 107.717 81.1845 106.903 80.7732 106.063C80.6931 105.897 79.9243 103.682 79.9059 103.551C79.7502 102.514 80.4011 101.292 79.673 100.494C79.4276 100.478 78.2579 101.746 78.0262 101.886C77.8501 101.994 77.1269 102.075 76.5261 102.508C75.9253 102.942 75.8146 103.906 74.4967 103.656L74.407 104.414L73.9106 104.119C73.744 105.497 73.0806 104.923 72.3093 105.312C71.9806 105.476 71.0042 106.252 70.9182 106.24C70.7461 106.219 70.5511 105.75 70.1998 105.766C69.6264 105.791 68.721 106.704 68.4697 106.694C68.0563 106.677 66.3282 106.103 66.0486 105.868C65.9484 105.785 64.4012 104.055 64.3512 103.936C64.1224 103.393 64.5497 102.959 64.4514 102.583C64.3531 102.208 63.6332 101.829 63.6275 101.036L64.2024 100.688L63.8457 100.133C63.2971 100.466 62.6982 100.722 62.1669 101.088C54.2791 106.514 47.0382 113.078 38.9854 118.084C35.52 120.238 32.4845 122.601 28.3418 122.289C28.0241 122.265 27.4432 122.506 27.4034 122.475C27.2901 122.38 27.1792 121.267 26.3865 121.34L27.2086 121.134C27.409 120.396 26.9743 120.591 26.4431 120.538L26.606 118.794L27.3819 118.719C27.5572 118.207 26.9566 118.07 27.0499 117.605C27.2979 116.375 28.4947 116.481 28.8742 116.085C28.9561 116.001 28.7014 115.355 28.8072 115.175C29.0088 114.836 29.4571 114.835 29.6968 114.55C30.1428 114.012 29.4637 113.498 30.6822 114.106L30.5144 113.61C32.0212 112.935 32.6742 111.306 33.6655 110.14C34.1103 109.619 34.8821 109.261 35.3638 108.583C35.8393 107.912 36.2632 106.879 36.9091 106.216C35.5932 105.486 34.8211 106.303 33.7342 106.453C32.984 106.557 31.5557 106.513 30.8846 106.61C30.3182 106.691 30.2263 107.44 30.0331 107.553C29.8925 107.635 29.446 107.346 29.0895 107.432C28.7729 107.507 28.7172 107.919 28.5143 108.01C23.2788 110.385 18.3113 114.625 14.2143 118.685C11.8316 121.049 9.85991 123.687 7.49616 126.021L4.57677 125.381C4.50392 124.889 4.98959 124.762 5.08752 124.348C5.22491 123.779 4.96231 123.164 5.04356 122.597C5.29495 120.792 8.50389 117.562 9.67398 116.025C10.3973 115.073 12.1018 113.016 12.6106 112.16C13.1195 111.304 12.451 110.532 13.688 111.231L13.1854 110.792C13.8457 110.577 14.1594 109.406 14.4606 109.197C15.9699 108.149 15.3807 107.782 16.3323 106.585C17.0087 105.736 18.4813 104.842 18.5521 103.358L20.9066 100.846L20.2901 100.129C19.3675 101.39 17.3311 101.537 15.911 102.024C15.4624 102.18 15.1211 102.626 14.5836 102.811C13.6865 103.121 11.4497 103.591 10.7074 102.946C10.5391 102.798 10.3397 101.935 10.4637 101.812C10.6695 101.605 11.1561 101.692 11.3608 101.538C12.6233 100.606 14.655 99.2761 16.4441 99.2906L16.476 98.6327L18.1131 98.6191L17.929 97.9282L18.3169 97.6086C19.4515 98.2518 20.0489 96.1633 21.4193 97.5181L21.2538 96.1599L22.1451 96.7598C22.5778 95.1537 23.6701 95.9146 23.9129 95.7752C24.0974 95.6681 24.3352 94.8399 24.8513 94.6815C25.1121 94.6024 25.5636 94.9366 25.642 94.8609C25.7115 94.793 26.2226 93.6422 26.5818 93.2558C27.3425 92.4411 27.9 91.8361 28.6414 90.9806C28.8773 90.7087 29.8335 90.167 29.8971 90.0649C30.0529 89.8151 29.7368 89.3168 29.8316 89.248C29.9086 89.1919 30.3644 89.3914 30.5635 89.2376C30.62 89.194 31.3936 88.2819 31.4316 88.2229C31.8893 87.4897 31.2895 86.2455 33.2377 86.7972L32.4999 85.9417C33.8986 85.6295 34.2142 84.6217 34.8385 83.4175L35.593 84.0101C35.021 82.3155 36.1532 82.6129 36.7442 81.8587C36.9236 81.6303 36.8024 81.1858 36.9625 80.9532C37.0849 80.7768 38.2234 80.2711 38.5479 80.1631L38.3603 79.368L39.4279 79.4415L39.244 78.5203C39.3491 78.2358 39.8543 78.2227 39.9765 78.0491C41.3689 76.0814 42.9236 73.8531 44.6893 72.18C45.1955 71.7004 46.4042 70.8515 46.4678 70.7494C46.6808 70.4084 46.701 69.2662 47.3983 68.7025C47.9139 68.2855 48.4952 68.5309 48.535 68.4861C48.7187 68.2749 48.8471 67.374 49.2681 66.8713C50.0182 65.9743 50.7949 66.3044 50.8558 66.2387C51.2137 65.8325 51.0389 64.1842 52.3174 65.0404C52.4464 64.3952 52.7535 63.5778 53.1156 63.0399C53.594 62.3307 56.0215 61.291 55.63 60.45C57.1205 60.448 57.8515 58.2964 58.783 57.559C58.9735 57.4073 59.2853 57.3208 59.3255 57.6104L59.5182 58.5632L59.7876 56.6668L60.4952 56.6068C60.607 55.5895 62.1338 55.0985 62.7033 54.4073C62.9095 54.1584 62.7735 53.6117 63.1245 53.2977C63.4756 52.9837 64.196 53.1298 64.4378 52.9285C64.629 52.7685 65.0034 51.7228 65.5313 51.2899C66.283 50.674 67.5948 50.8162 67.4353 49.7169L68.2123 50.0442C68.0233 48.3218 68.6504 48.933 69.2334 48.4761C69.7062 48.1065 70.6384 47.3972 71.0151 47.0402C71.5334 46.5475 71.2315 45.7074 72.2748 46.032L72.0729 45.2415C73.3148 45.1537 73.5536 44.0868 74.0518 43.601C74.6074 43.0605 75.5904 43.1025 75.5319 41.9629L76.2694 42.824C76.3004 41.0448 78.03 40.9173 79.0604 40.2434C79.3931 40.0264 79.6653 39.3019 80.1686 39.0498C81.0645 38.6048 81.4158 38.628 82.2838 37.8774L82.2443 38.4112L82.7765 38.4506L82.816 37.9168L82.2838 37.8774L82.3065 37.8735ZM102.715 27.2552L102.745 26.8584L102.245 26.4139L102.186 27.216L102.715 27.2552ZM106.309 36.3755C106.075 33.7927 109.116 31.3093 107.56 28.724L105.162 29.1027L104.944 29.8453C103.661 29.354 103.57 30.2718 103.081 30.5249C101.211 31.4907 98.7528 32.3004 96.8018 33.336C87.2886 38.3915 78.3762 45.6973 70.4616 52.8466C68.6842 54.4514 66.8403 56.3857 65.1633 58.1103L64.1448 58.0939L64.6475 58.5301C62.5722 60.3742 60.4523 62.215 58.4501 64.1319C51.4658 70.8247 45.2956 78.0245 39.1992 85.7047C38.8715 86.1188 36.9337 88.1107 36.9127 88.2806C36.8569 88.7316 37.2307 88.602 37.5655 88.4694C38.3824 88.145 38.9179 87.648 39.8767 88.0927L39.6657 87.2735L40.8765 87.0766L41.2509 87.6579L41.0653 86.5707C42.3217 86.9307 43.9328 84.8865 45.0644 84.9647C45.1592 84.9717 45.2565 85.8893 45.9769 85.5802L45.5012 84.7414L46.5487 85.0859C46.431 83.498 47.2884 84.0252 48.1546 83.6033C49.0207 83.1813 49.9173 82.461 50.6853 81.8884L51.3117 82.4715L51.4109 81.1329L52.04 81.7163C52.7711 80.7729 53.0761 80.2869 54.396 80.5083L54.4869 79.7733L55.5426 79.8177L55.0497 79.2474C56.0746 78.8006 56.6742 78.6484 57.7393 79.1712C57.9024 78.7843 56.7173 78.8988 57.2661 78.3354C57.4176 78.1808 58.5775 78.0672 58.6545 78.0111C58.9088 77.8305 58.704 77.3432 58.9396 77.2258C59.3321 77.0329 60.0724 77.439 60.5757 77.2262C59.9744 75.7374 61.1906 76.5271 61.3766 76.4369C61.5859 76.3344 63.3577 74.8051 63.7121 74.6346C64.0259 74.4837 64.7332 75.0334 65.0353 74.8507C65.176 74.7656 65.2352 73.8539 65.4851 73.6195C65.6535 73.4634 68.0311 72.569 68.4171 72.9545L68.5478 71.947C69.9514 72.2111 70.8055 70.3637 71.8024 70.7859L71.8624 69.9755C73.394 70.6678 72.6811 70.0811 73.2311 69.4644C74.175 68.4075 74.8036 68.6592 75.4713 68.3434C75.5004 68.3287 75.2389 67.9637 75.5161 67.7005C75.8086 67.4215 76.5309 67.0872 76.8953 67.3868L76.9806 66.3113L77.7377 66.9069C77.8516 65.4457 79.5814 64.7112 80.5747 63.7817C81.246 63.1543 81.1095 63.4083 81.5311 63.0489C82.2992 62.4006 81.7947 61.5708 83.1779 61.884C83.2883 60.3186 84.6062 60.6804 85.0036 59.6281L85.2546 60.3238L85.741 60.4891C85.3354 59.4222 85.9536 59.7378 86.2815 59.3574C86.6802 58.8924 86.378 58.3952 87.775 58.4846C87.1308 57.4984 89.0476 56.8873 89.7875 56.3156C91.0328 55.3513 91.4381 54.6451 92.2785 53.7773C93.0154 53.0199 93.1877 53.53 93.2302 53.4854C96.1642 50.2606 99.7348 46.4227 102.292 42.7598C102.709 42.1641 103.235 41.2308 103.356 40.498L104.401 40.8451C104.855 39.9374 103.516 40.8442 103.921 40.1408C104.422 39.2703 105.197 38.6028 105.197 37.3973L105.706 37.7076L105.645 36.6072L106.313 36.3617L106.309 36.3755ZM97.7244 29.316L97.1922 29.2766L97.5539 29.8401L97.7244 29.316ZM90.148 33.6017L90.1876 33.068L89.9257 33.0486L89.8861 33.5823L90.148 33.6017ZM99.2935 48.031L98.7613 47.9915L98.7217 48.5253L99.2539 48.5647L99.2935 48.031ZM102.233 48.2488L101.701 48.2093L101.681 48.472L102.214 48.5114L102.233 48.2488ZM70.2236 48.5719L69.6914 48.5325L69.672 48.7952L70.2042 48.8346L70.2236 48.5719ZM73.3909 49.3461L72.8587 49.3067L72.8191 49.8404L73.3513 49.8798L73.3909 49.3461ZM90.9064 56.036L90.3743 55.9966L90.3347 56.5303L90.9064 56.036ZM49.9224 68.6282L49.9619 68.0944L49.7 68.075L49.6605 68.6088L49.9224 68.6282ZM70.368 72.034L69.8358 71.9946L69.8163 72.2573L70.3485 72.2967L70.368 72.034ZM49.9313 72.1384L49.3991 72.099L49.3796 72.3617L49.9118 72.4011L49.9313 72.1384ZM48.1875 73.8947L47.6553 73.8552L47.6358 74.1179L48.168 74.1574L48.1875 73.8947ZM64.4955 75.1029L63.9633 75.0635L63.9238 75.5972L64.4955 75.1029ZM122.245 82.8826L122.284 82.3489L122.022 82.3294L121.983 82.8632L122.245 82.8826ZM56.5721 80.442L56.6117 79.9082L56.3498 79.8888L56.3102 80.4226L56.5721 80.442ZM55.4849 80.634L54.9527 80.5945L54.9132 81.1283L55.4454 81.1677L55.4849 80.634ZM120.057 87.0365L119.525 86.9971L119.506 87.2598L120.038 87.2992L120.057 87.0365ZM50.7616 82.7118L50.2294 82.6724L50.21 82.935L50.7421 82.9745L50.7616 82.7118ZM47.3139 85.6849L47.6804 84.3689C47.5528 84.0111 46.9536 85.2929 47.052 85.6655L47.3139 85.6849ZM43.7595 86.5062L43.2274 86.4668L43.2079 86.7295L43.7401 86.7689L43.7595 86.5062ZM84.5798 90.6067C83.1651 91.1735 81.5597 91.1753 80.1492 91.6469C77.1186 92.6587 71.7656 96.7692 69.4499 99.135C68.6406 99.9629 67.4675 101.087 67.5916 102.285C67.7492 102.541 72.8931 101.214 72.8878 99.9994L73.6092 100.283C73.8267 99.4649 74.623 99.4564 75.1524 99.0798C75.8356 98.5937 76.014 97.5082 77.3023 98.1572C77.0932 96.5935 78.2681 96.9194 78.4195 96.8042C79.7559 95.782 82.0171 93.6229 83.1876 92.4958C83.7367 91.9661 84.6458 91.6456 84.5824 90.6097L84.5798 90.6067ZM105.789 94.6002L105.828 94.0664L105.566 94.047L105.527 94.5808L105.789 94.6002ZM64.8587 95.6112L64.3661 95.038L64.3265 95.5718L64.8587 95.6112ZM20.6193 97.7286L19.5321 97.9206L19.4927 98.4515L20.0197 98.485L20.6165 97.7283L20.6193 97.7286ZM18.9349 98.6828L18.4027 98.6433L18.3832 98.906L18.9154 98.9455L18.9349 98.6828ZM88.6465 104.651L88.6861 104.117L88.1241 104.48L88.6465 104.651ZM39.1307 101.792L39.1702 101.258L38.9083 101.239L38.8688 101.773L39.1307 101.792ZM16.1436 100.094L15.6114 100.055L15.592 100.318L16.1241 100.357L16.1436 100.094ZM110.694 108.173L110.734 107.639L110.472 107.62L110.433 108.154L110.694 108.173ZM22.795 104.625L22.8346 104.091L22.5727 104.072L22.5331 104.606L22.795 104.625ZM37.4584 106.251L37.4979 105.717L37.236 105.698L37.1965 106.232L37.4584 106.251ZM39.5769 113.958L39.0447 113.919L39.0052 114.452L39.5769 113.958Z" fill="currentColor"/>
<path d="M152.359 83.9785C152.366 84.0268 152.768 83.9723 152.797 84.4521C152.851 85.3553 152.43 87.0241 152.146 87.8713C151.34 90.2759 149.499 92.4464 148.514 94.8012L156.342 94.305L156.378 95.9346L155.133 96.1037L155.364 96.6547C153.753 96.4707 154.108 97.4664 153.944 97.6313C153.884 97.6942 153.348 97.3932 153.073 97.3982C151.314 97.4392 150.501 97.896 148.717 97.7807C148.538 97.7674 148.558 98.2269 148.183 98.3621C147.392 98.6491 144.925 98.6686 144.208 99.422C144.08 99.5558 144.163 99.9553 144.026 100.066C143.868 100.195 143.454 100.024 143.338 100.122C143.165 100.266 143.277 100.868 143.079 101.156C142.825 101.528 142.282 101.027 141.981 101.308C141.349 101.896 141.927 102.681 140.754 102.069C140.451 102.442 139.52 103.25 139.085 103.524C138.445 103.926 137.623 103.143 137.607 104.381C136.488 104.394 135.683 105.396 134.648 105.904L134.572 105.23L134.047 105.053C133.801 106.26 132.338 105.919 131.545 106.073C130.243 106.328 130.498 106.254 129.27 106.34C128.397 106.402 127.544 106.684 126.663 106.659L126.973 106.148C124.856 106.129 123.387 105.466 122.63 103.477C122.544 103.041 123.097 102.427 123.391 102.125C127.278 98.1395 133.145 96.4668 138.759 95.607C140.36 95.3603 142.271 95.5413 143.915 95.1376C144.521 94.82 145.852 92.3898 146.086 92.2554C146.32 92.121 146.761 92.2998 146.823 92.2538C146.912 92.1873 146.449 90.807 147.315 90.194C147.528 90.044 147.911 90.2382 148.052 90.1896C148.095 90.176 147.806 89.6516 147.896 89.307C147.994 88.9377 148.752 87.9599 148.996 87.3597C149.462 86.2085 150.935 83.3475 149.339 82.6449C148.919 82.4592 148.683 82.6553 148.467 82.6224C148.356 82.6058 148.332 81.2693 147.382 82.8595L146.758 82.2822C146.802 83.047 146.105 82.7031 145.639 82.8653C144.564 83.2352 143.136 84.1635 142.066 83.8201L142.297 84.3739L141.545 84.0905C141.369 84.4259 140.356 85.2332 140.05 85.4016C139.237 85.8528 136.871 86.7536 136.21 87.1964C136.151 87.2342 136.562 88.1947 135.445 87.9209L135.087 87.3492L135.155 88.1664L134.515 87.8408L133.836 89.6787L133.215 89.0988L132.728 90.1417L131.951 89.8116C132.133 90.5051 132.068 90.7279 131.448 91.1203L130.842 90.2689C131.165 91.7259 130.851 91.0957 130.371 91.5996C130.073 91.912 129.805 92.4232 129.463 92.6254C128.915 92.9473 128.056 92.2486 127.886 93.8264L127.109 93.4991L127.317 94.3182C125.325 94.3251 125.789 95.7673 124.574 96.8153L124.085 96.2395L124.156 97.0512L122.838 96.6895C123.49 97.4234 122.928 97.5194 122.95 98.2881L122.179 98.2591L122.412 98.8131L121.629 98.4854C121.844 99.5971 120.897 99.142 120.587 99.4759C120.386 99.6914 120.708 100.145 120.635 100.255C120.383 100.638 118.739 102.034 118.398 102.506C117.967 103.106 118.385 103.893 117.22 103.548L116.995 102.997L117.203 103.817C115.467 104.714 115.357 103.548 115.885 102.168C116.007 101.845 117.49 99.4571 117.758 99.0809C119.526 96.6267 122.686 93.8683 125.058 91.8383C130.738 86.9765 137.026 82.0164 144.365 80.242C147.341 79.5239 151.419 79.458 152.436 83.0485C152.549 83.4503 152.317 83.745 152.355 83.9951L152.359 83.9785ZM128.324 102.471C128.229 102.917 127.649 103.343 128.352 103.76C129.233 103.736 130.083 103.498 130.931 103.364C133.028 103.031 136.012 102.043 138.034 100.662C138.22 100.535 139.447 99.3924 139.312 99.2475C138.554 99.4583 137.406 99.0838 136.767 99.1152C136.655 99.1209 135.702 100.141 134.731 99.4476L134.672 100.25C133.665 99.7002 133.538 100.348 133.014 100.498C132.279 100.71 131.258 100.904 130.591 101.181C130.015 101.422 129.086 102.354 128.321 102.471C128.505 101.614 127.689 101.623 127.789 102.432C127.96 102.43 128.163 102.496 128.321 102.471L128.324 102.471Z" fill="currentColor"/>
<path d="M227.162 69.9637C227.896 70.7289 227.272 73.6191 226.824 74.5272C226.768 74.6411 225.885 75.93 225.819 75.9898C225.557 76.2373 225.199 76.1518 224.964 76.3029C224.782 76.4187 224.715 76.7481 224.569 76.8245C223.747 77.2665 221.301 75.4555 221.087 74.858C221.055 74.7685 221.166 73.1133 221.206 72.9477C221.686 70.932 225.443 68.1729 227.159 69.9635L227.162 69.9637Z" fill="currentColor"/>
<path d="M206.255 193.424L205.723 193.385L205.703 193.648L206.235 193.687L206.255 193.424Z" fill="currentColor"/>
<path d="M233.481 101.639L233.219 101.619L233.179 102.153L233.441 102.172L233.481 101.639Z" fill="currentColor"/>
<path d="M305.478 22.3358L304.946 22.2964L304.927 22.559L305.459 22.5985L305.478 22.3358Z" fill="currentColor"/>
</g>
<defs>
<clipPath id="clip0_735_2830">
<rect width="333.232" height="178.216" fill="white" transform="translate(13.8154 0.726837) rotate(4.23722)"/>
</clipPath>
</defs>
</svg>
