<svg width="354" height="113" viewBox="0 0 354 113" fill="none" xmlns="http://www.w3.org/2000/svg">
<g clip-path="url(#clip0_735_2839)">
<path d="M202.68 102.963L202.428 102.011L202.965 102.309L202.991 101.481L203.805 101.784C203.503 100.514 204.83 100.894 204.142 99.7599C205.144 99.392 204.629 98.3178 205.401 97.5309C205.534 97.3951 205.914 97.5074 206.161 97.2895C206.812 96.7159 206.488 95.948 206.533 95.8837C206.809 95.4924 207.757 95.7888 207.073 94.2146L208.453 93.9789L207.921 93.5559C208.348 93.1752 208.776 91.8769 209.139 91.6171C209.247 91.5377 209.711 91.8671 209.912 91.4162L209.52 90.4517L211.053 89.815L210.261 89.1063L211.112 88.1733L211.931 88.334L211.404 87.631L212.097 87.2532L211.986 86.6922L212.952 86.7233C212.988 86.6673 213.077 85.604 213.066 85.4836C213.047 85.2715 212.302 85.4933 212.6 84.7911L213.408 85.0944L213.732 83.7299L214.266 84.0244C213.729 82.2377 215.877 81.9725 215.207 80.4874L215.702 80.7406C216.168 80.3926 216.153 79.1829 216.322 78.9969C216.553 78.7385 217.113 78.6651 217.158 78.6008C217.264 78.4441 216.574 78.2675 217.504 77.2713L217.621 77.821L218.05 77.2917L217.501 77.2741C218.37 76.3416 218.194 76.1873 218.429 74.8514L219.498 74.8658L218.7 74.1598C220.37 73.7362 219.508 73.1482 219.986 72.4176C220.281 71.9669 221.248 72.2296 220.722 71.0692L221.259 71.3638C221.046 70.0649 222.112 69.196 222.587 68.1365C222.673 67.9449 222.464 67.6037 222.503 67.4649C222.535 67.3545 223.491 66.9765 223.079 65.9342L224.179 65.9696L223.911 65.2978L224.493 64.9993L224.236 64.4622L225.054 64.3542L224.544 63.243C224.621 63.154 226.059 64.8811 225.396 62.1785L226.507 61.797L225.974 61.3739C226.855 61.3708 226.789 60.7656 226.881 60.0568L227.665 60.0506C226.973 58.5991 228.718 57.2747 229.698 56.4144L229.168 56.2544L229.177 55.7173L230.074 54.9744L230.561 55.2102C229.992 54.0428 231.541 53.2809 231.849 52.7906C231.969 52.6001 231.801 52.2402 231.918 51.9838C232.139 51.5164 232.7 51.2173 232.628 50.6147C232.22 50.2242 229.26 51.2007 228.613 51.2914C223.099 52.0713 218.076 52.0695 212.779 53.3966C210.599 53.941 208.511 54.8084 206.297 55.2573C204.896 53.3027 206.204 52.6445 207.891 51.8757C210.408 50.7248 213.464 49.697 216.048 49.2314C217.115 49.04 222.475 48.7982 222.748 48.5869C222.886 48.4799 222.716 48.0771 222.967 48.1052L223.369 48.1296L223.363 48.6582L223.895 48.6753L224.093 48.1272C225.357 49.0112 226.857 47.5759 227.403 47.4935C227.696 47.4486 228.17 47.7412 228.678 47.7003C229.394 47.6434 229.427 46.9842 229.637 46.9538C230.278 46.8515 230.857 47.1789 231.452 47.1809C232.776 47.1864 233.694 46.2098 235.152 46.5197C235.358 45.9776 236.314 45.2423 236.5 44.9682C236.747 44.5988 236.227 43.6674 237.513 43.6402L237 42.6689L237.548 42.2778L238.335 42.7205C237.869 42.0852 238.43 41.7889 238.545 41.3409C238.6 41.1283 238.391 40.8043 238.441 40.5858C238.514 40.248 240.062 39.4546 239.363 38.6632L239.749 38.2383L239.856 38.9192C240.803 39.004 240.672 37.5705 241.01 37.0841C241.178 36.8437 241.556 36.9444 241.571 36.9192C241.661 36.7678 240.812 36.3088 241.321 35.7049L242.166 35.572C241.458 34.4687 243.065 33.9688 243.279 33.627C243.562 33.1702 243.444 33.1892 244.064 32.3345C244.333 31.9602 243.561 31.4322 245.074 31.1637L245.096 30.4812L245.9 30.4842L245.953 28.8395L246.47 29.122C246.606 28.6347 246.824 28.0929 247.128 27.6911C248.571 25.7881 249.718 23.8527 251.46 21.9708C251.736 21.6738 252.526 21.4706 252.785 20.9702C253.041 20.3953 251.914 20.5791 252.264 20.2759C252.585 19.9975 253.492 19.8095 253.914 20.0489C253.714 19.5108 253.131 19.9151 253.4 18.9376L254.5 18.973L254.536 17.8765L255.621 18.1831L255.508 17.622L256.204 17.2414L255.668 16.8154C256.026 16.987 257.974 15.652 258.095 15.4558C258.161 15.3464 257.9 15.0064 257.927 14.9844C258.109 14.8331 261.474 12.852 261.965 12.5991C262.361 12.3946 262.726 12.7122 262.878 12.6113C263.038 12.505 263 12.0893 263.356 11.9607C263.46 11.9241 265.435 11.6161 265.54 11.6509C265.82 11.7429 265.588 12.2899 265.831 12.2063L266.812 11.4146C266.703 12.666 268.89 12.1791 269.193 12.366C269.249 12.4022 270.017 13.3273 270.041 13.3881C270.242 13.8891 269.942 14.7542 270.138 15.0749C270.301 15.3431 270.694 15.2329 270.915 15.8974C271.153 16.6054 270.493 17.0072 270.521 17.3797C270.708 19.6811 270.934 20.7231 270.4 23.1899C269.617 26.8035 266.796 32.6811 264.292 35.2102C263.644 35.8639 263.367 35.955 263.313 36.0133C263.13 36.2161 263.266 37.0323 262.672 37.4591C262.034 37.9158 261.342 37.2733 261.158 38.1077L260.609 38.0843L260.764 37.5405L259.658 37.7736C260.021 36.6362 260.613 35.5776 261.311 34.6082C261.568 34.2506 262.156 34.1095 262.213 33.8626C262.412 33.0086 261.865 33.7342 262.558 32.7303C264.254 30.2695 264.721 27.9235 265.906 25.4205C266.004 25.215 267.363 24.7557 266.13 24.413L266.966 24.0226C266.163 23.465 266.858 21.6094 267.592 21.5759L266.861 20.892C267.26 20.3275 266.912 19.6788 266.97 19.2176C267.004 18.9415 267.343 18.8294 267.413 18.6945C267.51 18.5004 267.005 18.6442 266.886 18.3402C266.717 17.906 266.928 17.2325 266.828 16.9606C266.812 16.9143 266.496 16.8641 266.382 16.6832C266.194 16.3885 266.279 16.0568 265.943 15.7515C264.52 14.4679 263.305 16.7413 261.726 16.7504L261.972 17.2843L260.871 17.2546L261.134 17.809L260.35 17.8295L260.279 18.6075L259.468 18.3041C259.715 19.4098 258.704 19.7202 258.033 20.3989C257.702 20.7341 257.338 21.5428 257.069 21.7199C256.572 22.0469 256.18 21.2653 256.454 22.5977C255.478 22.5547 255.68 23.3816 255.007 24.1832C252.666 26.9777 250.995 29.2363 248.957 32.2835C247.983 33.7414 246.636 35.9676 245.439 37.4955C244.894 38.1925 244.486 38.8597 244.777 39.7638L244.252 39.2009C244.061 39.6121 243.736 41.0994 243.575 41.3086C243.386 41.5541 242.737 41.476 242.557 41.6446C242.507 41.6915 242.695 42.5866 242.469 43.031C242.28 43.4079 240.954 44.2399 241.04 45.123L241.872 44.6039L242.26 45.4311C242.802 44.5881 243.499 45.1594 244.083 45.0639C246.15 44.7246 247.912 44.3755 249.989 44.1823C250.466 44.1376 250.788 43.2018 251.074 44.3487C251.586 43.6306 252.543 44.4789 252.624 43.301L252.878 43.8551L253.421 43.8669L253.619 43.3159C255.036 43.5274 257.072 43.5615 258.271 42.6597L258.39 43.2095C258.841 43.3441 258.526 42.7365 258.857 42.6729C259.568 42.5357 260.905 42.4873 261.408 43.0324L261.723 41.9477C262.748 42.9812 264.341 41.8463 265.431 41.6527C265.932 41.5659 268.234 41.1428 268.529 41.1265C269.137 41.0889 269.718 41.5193 270.331 41.4075C270.998 41.2861 273.289 40.2366 273.758 40.1431C274.91 39.9086 275.312 40.5819 276.329 39.1826C282.417 30.7976 288.139 21.732 295.006 14.021C296.526 12.3121 297.089 11.7928 299.021 10.503C299.308 10.3122 299.292 9.54845 299.797 10.1364C299.919 11.3066 299.514 11.8881 298.891 12.777C298.516 13.3109 297.818 12.9397 298.286 14.3354L297.477 14.0349C297.312 15.6132 295.864 17.3102 294.597 18.1955L295.138 18.3502L295.121 18.8927C293.782 18.7124 294.142 19.7873 293.656 20.5892C292.922 21.7975 291.745 23.003 290.881 24.15C290.206 25.0458 289.996 26.6712 288.558 26.6392L288.809 27.299C287.97 27.5978 288.244 28.3241 287.885 28.9014C287.164 30.0644 283.719 33.9124 283.454 34.4785C283.39 34.6136 283.611 34.9523 283.479 35.2225C282.992 36.2129 282.042 36.6654 282.43 38.2272L284.047 37.6733L284.122 36.9182C285.4 37.311 286.403 36.8945 287.596 36.3613C289.294 35.6013 290.541 34.9669 292.428 34.2959C293.82 33.8005 294.086 33.3575 294.61 33.1457C295.135 32.9339 296.197 33.1683 296.267 33.1248C296.381 33.0513 296.456 32.5992 296.768 32.412C297.415 32.027 298.569 32.0727 299.313 31.7251C299.981 31.415 299.243 30.6824 300.736 31.6852C301.154 30.318 303.692 31.1001 304.894 30.7272C304.89 31.1073 304.939 31.469 304.719 31.8107C304.623 31.9591 302.342 34.1237 302.187 34.2359C302.11 34.2907 301.266 34.5922 300.644 34.9752L300.661 34.4298L300.116 34.4122L300.098 34.9576L300.644 34.9752C299.424 35.7277 298.818 35.4537 297.635 36.0216L297.848 36.5258C297.106 36.8221 296.359 36.4836 295.632 36.8403C294.839 37.2292 293.736 38.077 292.868 38.4663C290.576 39.4901 287.796 40.3467 285.515 41.1079C284.445 41.465 277.066 43.2968 277.051 43.9509L277.533 44.5152C275.966 45.388 275.471 47.253 274.528 48.6518C273.528 50.1374 271.903 51.3027 271.786 53.2427L270.978 52.9366L270.013 55.6153L269.246 55.6335C269.887 56.6775 268.012 57.789 267.864 58.1158C267.686 58.5131 267.874 58.9651 267.679 59.3476C267.63 59.446 266.471 60.1748 266.431 60.2535C266.382 60.3491 266.112 62.247 266.002 62.3778L265.194 62.0774L265.418 63.4538L264.616 63.5795C264.754 64.4443 263.753 65.8756 263.201 66.9469C262.505 68.2936 261.069 70.3398 260.651 71.7755C260.596 71.9681 260.707 72.1547 260.736 72.3385L259.952 72.3447C260.088 73.3553 259.406 73.905 259.166 74.7262C259.056 75.0971 259.495 75.6858 258.981 76.0037L258.163 75.8344L258.7 76.2977L258.662 77.2197L257.854 76.9164L257.554 77.5985L258.357 78.1675C258.117 78.4256 257.77 78.6059 257.636 78.9532C257.287 79.8566 256.49 83.001 256.315 83.9158C256.222 84.413 257.196 85.7822 255.9 86.5894L256.71 86.7527C256.59 87.3662 256.354 87.8503 256.364 88.5109C256.379 89.4747 257.404 90.5082 256.311 90.7131C257.503 92.8667 259.41 93.4284 261.698 93.7651L261.451 92.9396C261.775 92.7186 264.074 93.1156 264.582 93.0406C265.171 92.9538 265.966 92.0875 266.916 91.8209C267.966 91.526 268.97 91.444 269.99 91.8399L269.86 90.9953C270.738 90.895 270.863 90.0386 271.689 90.2539L270.842 91.0441C271.883 91.3149 271.99 90.3264 272.55 89.8929C273.55 89.119 275.18 88.6027 276.393 89.0334L276.726 87.6778C277.45 88.1041 278.268 87.7646 278.39 86.9024L279.187 87.4769L278.939 86.6486L281.414 86.4539C281.095 84.963 282.243 85.3915 283.159 84.8436C284.022 84.3255 285.669 82.6663 286.226 82.3441C286.508 82.1817 286.841 82.5012 286.986 82.4487C287.067 82.417 287.534 81.4173 288.433 81.7378C287.932 80.4239 288.944 80.7138 289.546 80.2244C291.976 78.2474 291.833 77.0794 292.644 74.1928C292.922 73.2041 293.64 72.7413 293.155 71.4737L293.966 71.7714C293.904 71.475 293.727 71.2806 293.833 70.9438C294.181 69.8174 299.769 62.6569 300.887 61.5181C301.884 60.5012 302.89 59.7247 304.232 59.1876L304.003 58.3885L305.923 58.4503L305.678 57.6192L306.459 57.8702L306.51 57.3744L307.053 57.3919L307.587 57.9551L307.744 57.1398C308.883 58.0998 309.29 56.9381 309.384 56.9468C309.663 56.9701 310.18 57.284 310.569 57.2794C310.96 57.5664 310.613 58.4957 310.651 58.5541C310.945 58.9981 311.583 59.4531 311.614 60.4317C311.651 61.5048 311.156 62.6751 311.513 63.8357L310.702 63.538C311.135 64.9069 310.804 65.3536 309.535 65.8301L310.05 66.8043L309.252 66.7986C309.582 68.0126 307.704 68.8611 307.364 69.479C306.31 71.3716 306.172 70.5068 305.323 71.3856C304.998 71.7238 305.13 72.6685 304.106 72.6755L304.346 73.4751L303.511 73.2909C303.207 74.1329 303.112 74.4815 302.116 74.5037L302.355 75.6034L301.27 75.294L301.243 76.1192L300.429 75.8186L300.674 76.644C299.164 76.2952 298.837 78.0883 297.897 78.9385L297.878 79.5381C299.531 80.6147 301.089 82.4915 303.205 81.1819C303.888 80.758 303.696 80.1515 304.397 80.3341L304.648 80.8882C304.644 80.0334 305.261 80.3363 305.413 80.2382C306.351 79.6253 307.859 78.8878 308.317 77.9936L309.107 78.8423L309.499 77.2628L310.806 77.2477L310.561 76.4194L311.057 76.6669C311.299 75.7314 311.941 75.8608 312.771 75.939L312.52 75.1134C313.758 75.2219 313.652 74.2437 314.022 73.8612C314.167 73.7115 315.681 73.0742 316.02 72.7507C316.359 72.4272 317.086 71.0843 317.438 70.7269C322.102 65.992 326.406 61.5857 330.508 56.5984C331.065 55.9189 332.166 55.3027 332.802 54.6571C333.041 55.7539 333.989 55.3557 334.231 55.5664C334.295 55.62 334.523 56.8107 334.978 57.0569C334.532 58.3803 334.319 60.0285 333.794 61.3293C333.7 61.5607 333.378 61.5274 333.286 61.7417C332.955 62.5028 332.73 63.4617 332.356 64.2358C332.527 64.4271 334.686 62.9245 335.084 62.7544C335.788 62.4512 337.523 61.8839 338.226 61.8208C339.061 61.7448 341.455 62.791 342.175 63.2773C342.553 63.5324 342.345 64.3804 343.481 63.7681L343.329 64.3149C343.813 64.4592 343.971 63.9897 344.352 63.8991C344.637 63.8311 345.103 64.0262 345.362 63.8688C345.572 63.7412 345.835 62.7035 346.08 62.2883C347.027 60.6895 347.85 59.3754 349.693 58.5572C350.517 59.0754 350.531 60.1535 351.629 60.2546L351.893 62.5299L351.629 62.1155L351.21 62.6108L350.254 62.3456C350.011 63.0667 351.257 63.2669 351.275 63.6048C351.324 64.5782 349.983 64.981 349.367 65.187L349.579 66.1599L348.771 65.8566L348.43 67.2006L347.627 67.1918L347.513 66.645C346.929 66.8235 346.833 68.2039 346.765 68.2674C346.742 68.2895 346.356 68.0027 346.143 68.0587C345.508 68.2298 345.319 69.0241 344.972 67.9124C343.61 68.5345 342.611 67.4961 341.299 67.814L341.606 66.7291C341.123 66.5392 340.903 67.1667 340.637 67.161C340.028 67.1471 337.232 64.3329 337.205 66.856L336.107 66.6749L335.53 67.9025L334.876 67.0611C334.401 67.243 334.722 67.7736 334.657 67.8315C334.468 68.0027 333.651 68.0621 333.183 68.3758C332.058 69.1256 331.894 70.6581 330.244 70.2019C330.598 71.1052 329.382 72.4695 328.662 73.0609C327.716 73.8393 327.209 73.5914 326.547 73.7988C325.602 74.0971 325.451 75.7758 325.082 76.3985C323.875 78.4235 322.355 79.6922 321.832 82.0736C320.752 82.7477 321.084 84.1791 319.551 83.2836C319.484 83.7674 318.788 83.8679 318.417 83.7444C318.205 83.6747 318.442 83.0592 317.893 83.2416C317.511 83.3694 317.57 83.7657 317.724 84.0537L316.904 84.0272C317.091 82.4925 316.219 81.2982 317.843 80.3558L317.306 80.0669L318.405 79.9623C318.497 79.8452 317.175 77.6616 319.281 78.344C318.674 77.1239 320.041 77.0479 319.921 75.6205L320.455 75.915L320.226 75.1073C321.557 74.8328 321.019 74.4668 321.105 73.8321C321.237 72.8645 321.457 73.3004 321.557 73.1406C321.696 72.9136 321.869 72.3303 321.398 72.3809C321.405 73.1557 320.659 73.2003 320.345 73.5418C319.168 74.8216 317.842 76.8227 316.26 77.8122C315.884 78.0488 315.337 78.1426 314.895 78.2055L315.145 79.0311C314.738 79.0609 314.19 78.8632 313.834 79.0604C313.499 79.2468 312.275 80.5794 311.992 80.7704C311.591 81.0376 310.472 81.1473 310.028 81.5961C309.715 81.9147 309.872 82.3714 309.816 82.4268C309.745 82.5017 309.283 82.1895 308.999 82.2833C308.413 82.473 306.446 84.2019 305.424 84.6835C303.315 85.6732 301.305 86.0143 299.001 85.5113C298.848 85.4778 296.3 84.2952 296.171 84.2053C295.539 83.7562 295.751 82.8654 294.984 83.0494L294.83 83.5932C294.661 82.7017 293.117 82.7748 292.458 82.9851C292.117 83.0942 291.358 84.2846 291.101 84.4221C290.892 84.5354 290.589 84.2512 290.352 84.3351C289.849 84.5132 289.701 86.0006 288.71 85.8515L288.829 86.6842L288.164 86.1168L287.409 87.1759L286.628 86.8878L286.876 87.7161C285.755 87.4513 285.479 88.4572 284.981 88.7556C282.63 90.1605 279.858 91.3203 277.313 92.6304C276.394 93.1039 275.312 93.3005 274.208 93.9195C271.945 95.1844 267.459 96.632 264.658 97.3336C262.53 97.8681 259.132 98.2331 256.861 97.8513C256.09 97.7207 254.804 96.7159 253.932 96.5249L254.491 96.137L252.479 94.5715L252.655 93.4709L253.203 93.4886L252.807 92.927L252.652 93.4708C251.075 92.4424 253.129 89.5844 251.15 89.029L251.299 88.4963L252.267 88.3817C251.841 88.3737 251.329 86.9309 251.337 86.7053C251.351 86.2684 252.548 85.1693 251.7 84.6618L251.287 84.7885L252.131 83.9868L251.583 83.1602L252.499 81.5375L251.967 80.9915C252.643 80.4245 252.274 79.0034 252.373 78.7007C252.392 78.647 253.115 78.3073 253.304 78.0247C254.169 76.7434 254.407 75.0388 254.394 73.5062C255.044 73.9045 255.324 73.6706 255.776 73.1391L255.298 72.9523L255.275 71.6223L256.27 71.3857L256.131 70.5465L256.957 70.5731L256.839 70.0662C255.77 70.6492 257.228 69.0669 257.019 68.6514L257.827 68.9547C257.329 67.3551 258.573 66.2975 259.062 64.884C259.293 64.5627 259.348 66.0424 259.739 65.1831C260.01 64.5887 259.964 63.8898 260.061 63.2669L261.03 63.2981L260.495 63.0122L260.814 61.6475L261.625 61.9509C260.855 60.2797 262.118 60.5948 262.513 59.8643C263.457 58.1139 264.552 56.7085 265.345 55.0018C265.461 54.7512 265.43 54.4043 265.45 54.122L266.259 54.4224C266.177 53.6566 266.397 53.1577 266.718 52.502C267.147 51.624 268.084 51.1254 268.411 50.6357C268.646 50.2831 268.628 49.7794 268.877 49.4187C269.945 47.8781 271.273 46.5917 272.05 44.8731C272.016 44.0573 269.514 45.1916 269.042 45.285C263.675 46.3583 257.839 46.9106 252.345 47.694C247.782 48.3445 243.159 48.893 238.594 49.4891C237.608 50.1805 237.545 51.0732 236.957 52.1805C236.866 52.3519 236.505 52.366 236.483 52.4139C236.36 52.6844 237.117 53.532 235.552 53.433L235.799 54.9359C234.487 55.0594 234.737 55.9193 234.316 56.7376C234.051 57.2492 233.358 58.6676 233.115 59.0428C232.838 59.4655 231.909 59.1754 232.574 60.7376L231.766 60.4343C231.481 60.8396 231.394 62.4661 231.345 62.5646C231.321 62.6152 230.988 62.6245 230.868 62.795C230.386 63.4855 230.63 64.1737 229.462 63.653C229.487 64.0397 229.674 64.3573 229.586 64.7661C229.542 64.9762 228.381 67.4514 228.202 67.7743C226.53 70.7504 224.556 73.5996 222.966 76.7041C222.105 78.3829 221.821 79.0369 220.995 80.2622C220.025 81.7002 219.944 82.6038 218.826 84.1828C218.38 84.8144 218.164 85.6507 217.484 86.1633L218.282 86.8722L217.46 86.72C217.556 87.4605 216.443 88.2851 216.369 88.6257C216.231 89.2558 217.164 89.6175 215.792 89.579C215.793 91.3227 214.37 91.5569 214.241 93.0478L213.442 92.4761C213.968 94.2538 213.452 93.7484 213.002 94.4028C211.295 96.8861 209.848 100.584 208.131 103.107L207.446 103.319C207.446 103.319 207.446 103.319 206.892 103.808L206.303 104.36L205.521 105.001L204.398 106.391L202.245 107.78C202.245 107.78 200.804 108.548 202.684 102.943L202.68 102.963ZM267.981 18.0211L267.598 17.1912C266.933 17.59 267.288 18.0216 267.981 18.0211ZM281.312 38.7457C281.862 38.6177 281.948 38.1802 281.89 37.6667C281.34 37.7947 281.254 38.2322 281.312 38.7457ZM273.552 49.4636L273.57 48.9182L273.011 49.3118L273.552 49.4636ZM268.37 56.9773L267.824 56.9597L267.816 57.2281L268.362 57.2457L268.37 56.9773ZM351.386 61.2987L350.841 61.2812L350.832 61.5496L351.378 61.5672L351.386 61.2987ZM306.722 62.5008C306.571 62.3187 306.27 61.6258 306.094 61.7602C306.185 62.5807 305.651 62.0175 305.583 62.0725C305.172 62.408 304.531 63.4764 304.213 63.852C303.74 64.4113 303.048 64.1432 303.505 65.2384C302.578 64.8713 301.351 67.0985 300.772 67.8516C299.718 69.224 299.142 70.4146 298.249 71.8322C298.041 72.1628 297.296 72.3046 297.228 72.714C298.763 73.1236 298.584 70.9512 300.001 71.7114C299.753 70.2713 300.422 70.8103 300.833 70.4691C301.189 70.1747 301.317 69.7386 301.839 69.5382C302.453 69.3007 302.773 69.6426 302.809 69.6095C302.853 69.568 302.889 68.7974 303.124 68.4362C303.563 67.7615 306.189 65.0991 306.354 64.7042C306.608 64.095 306.142 63.1024 307.136 63.1601L307.153 62.6204C307.013 62.6159 306.805 62.6064 306.719 62.5036L306.722 62.5008ZM331.798 64.5065L331.252 64.4889L331.243 64.7573L331.789 64.7749L331.798 64.5065ZM223.586 67.0482L223.604 66.5028L223.335 66.4941L223.318 67.0395L223.586 67.0482ZM328.233 72.887L328.25 72.3416L327.981 72.3329L327.964 72.8783L328.233 72.887ZM256.352 72.2201L255.806 72.2025L255.797 72.471L256.343 72.4885L256.352 72.2201ZM255.187 74.375L254.641 74.3574L254.632 74.6259L255.178 74.6435L255.187 74.375ZM274.729 89.54L274.184 89.5224L274.175 89.7909L274.721 89.8084L274.729 89.54ZM267.497 92.5914L266.969 92.0284L266.951 92.5738L267.497 92.5914ZM255.301 96.3117L255.318 95.7663L255.05 95.7576L255.032 96.303L255.301 96.3117Z" fill="currentColor"/>
<path d="M69.9076 82.1141C70.322 81.6816 70.5378 81.1082 71.2981 81.0384L71.0666 80.2334L71.8691 80.8053C71.9628 79.6735 73.0593 79.2886 72.5116 78.0876L73.32 78.388C73.0068 77.2774 73.9491 77.2392 74.1237 76.9704C74.2983 76.7016 74.624 76.0918 74.8685 75.6938C75.2128 75.1303 75.0285 74.1011 76.1985 74.3646L75.9478 73.5361L77.0569 73.2917L76.8177 72.1921L77.8769 73.321L77.6274 72.0981L78.1996 71.8279C76.9559 70.8331 79.5781 69.9714 79.127 68.702L79.6367 68.9528L79.9557 68.46L80.0753 69.0098L80.9334 67.9455L81.4556 68.7828L82.5738 67.9927L82.8477 68.2788C82.4067 69.2708 83.895 68.7127 83.7213 69.4875C83.6613 69.7514 82.8397 71.8144 82.6963 72.09C82.3821 72.7001 81.3875 73.2941 81.3117 73.426C79.329 76.9923 77.0089 80.8165 74.0561 84.1287C73.5931 84.6483 72.6593 85.49 71.9928 85.7544L71.9754 86.2969L72.5067 86.5856C71.4139 86.3217 71.8215 86.9894 71.572 87.2758C71.4234 87.4483 71.1504 87.4881 71.0044 87.6663C68.3833 90.8919 65.0646 94.1094 61.0428 96.0636L57.1301 96.2291L56.881 95.2606C55.6235 95.4031 52.9846 92.7883 53.678 91.5987L52.865 91.441L53.4313 90.9104L53.44 90.642C52.7659 90.8775 52.7546 89.4536 52.8125 88.9867C52.9012 88.275 53.8505 87.8425 52.7184 87.4687C53.6389 84.2912 55.11 80.8913 56.8579 78.0434C57.0451 77.7378 58.1549 78.008 56.77 76.7771C54.974 78.5429 52.8241 79.7514 50.7603 81.1256C46.127 84.2149 36.1326 89.4554 30.5548 89.633C30.1482 89.6456 29.7131 89.3 29.4925 89.3101C29.2347 89.3218 29.241 90.0137 28.8809 90.0936C28.7398 90.1233 26.3499 89.7233 26.0182 89.6297C25.6213 89.5198 24.2131 88.7484 23.8589 88.4654C22.7017 87.5391 22.5187 85.3179 20.9754 84.6565L21.7926 84.6828C21.5319 83.4538 21.4437 81.9274 22.4632 81.0027L21.9247 80.8481L21.9378 80.4427C23.0997 79.9827 22.4499 79.8189 22.6712 79.2543C23.0609 78.255 23.7873 78.5271 23.9329 78.2688C24.2969 77.6259 24.2988 76.2339 25.1545 75.5126L25.6498 75.7629C25.0332 74.3938 26.7593 74.0864 27.1061 73.7117C27.4498 73.3426 28.5738 71.2178 28.8113 71.0368L29.9119 71.2352L29.1138 70.5263L30.0123 69.6263L30.7789 69.894C30.4689 69.3952 31.3905 68.2243 31.7156 68.0776C31.881 68.0029 32.6249 68.5299 32.7697 67.7657L31.954 67.6022C32.6772 66.9966 34.3701 66.5652 34.2176 65.617C35.432 65.7476 37.0817 64.3487 38.4795 63.7591C39.0449 63.5201 39.6999 64.1443 39.7922 63.0554C40.6784 63.87 41.6652 63.8704 42.7819 64.1036C44.0013 66.0295 44.6152 67.2184 44.2174 69.6209C43.6034 73.3172 39.6919 76.7328 36.2626 78.1401C33.787 79.158 31.3009 79.5267 28.7675 79.7623C26.1769 80.0018 26.0271 82.6954 25.3909 84.6873C26.1149 84.7649 26.0823 85.8672 26.1575 85.9297C26.2523 86.0042 27.8316 85.5491 28.4597 86.2983L28.9009 85.7437L29.0205 86.2935C29.8841 85.3237 30.8882 85.8534 31.6536 85.7123C32.022 85.6441 32.4307 85.2085 32.7525 85.1646C33.238 85.1002 33.5394 86.2218 34.2039 84.5968C35.346 85.1938 35.4825 84.4179 35.7426 84.3376C37.5453 83.784 39.8428 83.0577 41.1488 82.2937C41.487 82.0959 41.5031 81.6848 42.0564 81.4682C42.7228 81.2067 43.4966 81.6033 43.5841 81.5518C43.6336 81.5248 43.1283 80.9597 43.9617 80.6635C44.471 80.4798 44.9412 80.8008 45.2547 80.6594C45.6583 80.4752 45.8708 79.7389 46.2525 79.4339C46.3405 79.3653 47.9789 78.3175 48.0804 78.2751C49.2542 77.7984 50.0538 78.9075 50.058 76.5551C50.5587 76.4626 50.2146 77.0232 50.3148 77.1094C50.8125 77.5542 50.6048 75.032 51.6767 75.8555C51.8023 75.951 51.5291 76.4424 51.9815 76.3398C51.8882 74.2616 53.48 74.4872 54.2026 73.8988C54.2819 73.8328 53.84 72.9009 55.6631 73.3141L55.9747 71.8092C56.5589 71.9652 57.0903 72.3425 57.3522 71.582L56.5409 71.2815L57.9478 70.2292L58.4732 70.792L58.5084 69.6984C59.2848 69.3947 58.882 70.7109 59.5826 70.2733C59.641 70.2351 59.7477 69.4982 60.5802 69.4965L60.1791 69.0719C60.621 68.6717 60.9477 68.0333 61.5698 68.4335L61.6109 67.3344L62.4105 67.909C62.223 66.3593 63.7811 66.4724 64.5271 65.7819C65.1463 65.2072 65.4498 64.8426 66.2206 64.1785C66.5943 63.8561 66.8591 63.0071 67.4349 62.8913C67.9617 62.7882 68.4285 63.4807 69.052 63.3951C69.4427 63.3419 69.7845 62.9442 70.0689 62.9933C70.6692 63.0956 70.9138 64.2926 71.8902 63.2836C71.7138 63.9639 71.6837 64.9005 71.4662 65.5252C71.3182 65.9435 68.7334 69.1103 68.2357 69.7288C67.61 70.5062 67.4991 70.7513 66.9744 71.5005C66.213 72.5822 65.0264 72.301 65.2335 74.0399L64.6995 73.7482C64.9487 75.4227 63.3391 75.9311 62.8394 76.7011C62.424 77.3423 61.8082 79.1433 61.1639 80.0544C60.2558 81.3372 58.5544 84.6039 57.8321 86.693C57.2737 88.3101 56.5187 90.5239 58.0757 91.7375C59.5546 92.8914 60.8946 90.8965 62.2232 90.9421L61.9724 90.1165L63.633 89.8899L63.4941 89.0508C64.8935 89.033 64.6457 87.2242 65.618 87.7643L65.662 86.3965L66.3487 86.6587L67.3169 86.1726L66.7798 85.8837L66.7973 85.3411C67.5548 85.357 67.6143 84.4871 68.1448 84.0039C68.4071 83.7637 69.2176 83.5554 69.2808 83.4574C69.3981 83.2782 68.8582 83.258 69.918 82.1459L69.9004 82.6913L70.4462 82.7089L70.4638 82.1635L69.918 82.1459L69.9076 82.1141ZM39.4897 72.087L40.6094 70.0078C40.2991 68.8058 41.5353 67.3707 40.3702 66.4213C39.8929 66.6774 39.2122 66.6727 38.774 66.8701C37.7929 67.313 34.1891 70.587 33.4624 71.4783C33.2629 71.7234 33.428 72.1918 33.1841 72.304L32.3575 72.123C32.6703 73.3365 31.682 73.2903 31.5119 73.5107C31.3835 73.678 31.8933 73.5687 31.0745 74.5685C30.6517 75.0837 30.4801 75.7928 29.8204 75.9373L30.0186 76.7126C31.098 75.3468 32.5858 76.6667 33.2232 75.1723L33.3519 75.7081C34.0258 75.9213 34.0687 74.8565 34.9508 74.7334C35.3875 74.6732 35.9269 75.065 36.0787 74.9727C36.3559 74.8016 36.6964 73.1117 37.9549 73.1151C38.1722 73.1164 37.8911 74.1193 38.5027 73.4244L38.6872 71.781L39.4955 72.0843L39.4897 72.087ZM76.7118 75.4788L77.2651 75.085L76.8725 74.6636L76.7118 75.4788ZM57.7368 76.5138L57.191 76.4962L57.1823 76.7647L57.7281 76.7822L57.7368 76.5138ZM68.439 85.0825L68.3222 84.5327L67.8933 85.062L68.439 85.0796L68.439 85.0825Z" fill="currentColor"/>
<path d="M141.619 68.4375C139.512 71.8712 135.779 75.8528 132.017 77.5524C131.765 77.6672 131.679 78.1876 131.258 78.2111C130.974 78.2277 128.906 77.5236 129.031 76.9417L128.556 77.1236L126.968 73.2964C126.125 73.1235 124.889 73.4581 124.352 74.0725C124.275 74.1615 124.393 74.4826 124.227 74.6745C123.085 76.0041 122.565 76.7962 121.64 78.0813C121.433 78.3662 120.921 78.4555 120.702 78.8829C120.378 79.5099 120.748 80.1049 120.709 80.1551C120.658 80.225 120.113 80.2846 119.893 80.5519C119.318 81.2566 119.452 82.0727 118.209 82.0269L118.448 83.1266C117.963 83.2539 118.338 82.4627 118.057 82.568C117.568 82.7523 117.667 84.3591 117.316 84.8738C116.911 85.4696 115.979 85.794 115.692 86.1163C115.415 86.4276 114.675 87.8472 114.181 88.3544C113.412 89.1414 112.444 89.7963 111.492 90.3087L111.425 88.1141L110.381 88.0319L109.898 85.7981C111.432 84.0982 112.225 82.1085 113.324 80.1516C113.439 79.9466 113.875 79.9092 114.108 79.508C114.614 78.6353 114.442 76.6031 115.627 77.0072L115.229 75.891C115.406 74.9276 117.249 75.5101 115.7 74.6799L116.285 73.4639L115.987 74.2718L114.586 74.3581C114.214 75.1494 112.925 76.1883 112.169 76.85C111.3 77.6081 109.938 78.8591 109.01 79.4495C108.183 79.9745 107.659 79.3745 107.972 80.6023L107.006 80.5711L106.931 81.6407C105.571 81.7826 104.288 84.0395 103.207 84.7422C102.678 85.0853 101.734 85.3493 101.086 85.3255L100.996 86.3488C100.611 86.4679 100.219 86.4924 99.8467 86.6777C98.5212 87.3353 97.279 88.2471 95.6464 88.4003C95.4284 88.4219 95.0054 88.0538 94.9601 88.1295L94.9335 88.9548C93.1003 88.0553 93.2693 89.0269 92.5982 89.3455C92.3513 89.4633 90.6587 89.0857 90.5713 89.1344C90.4839 89.183 90.4578 89.7281 90.0704 89.8557C89.2262 90.1315 88.1459 89.3935 87.2231 89.8011L87.2018 89.0429C85.6804 88.8539 86.2515 88.8837 85.5016 88.0992C84.7518 87.3147 83.3307 85.0764 83.1167 83.9947C83.075 83.7819 83.333 83.4072 83.3081 83.3806C83.2058 83.2716 81.0402 82.4815 80.887 81.7305C80.5093 79.8717 83.4865 80.3307 84.3474 80.0669C84.6826 79.9633 84.7024 79.5238 84.9072 79.3817C85.1355 79.2233 85.5767 79.3776 85.6386 79.3224C85.7238 79.2508 85.4279 78.7582 85.5422 78.496C85.5854 78.3974 86.8652 76.9408 86.9503 76.8749C87.2053 76.6831 87.5809 76.921 87.6077 76.8904C87.9053 76.5312 88.4201 74.6698 89.0856 74.0767C89.8249 73.4173 90.3571 74.2091 90.0819 72.8968C91.5489 72.3781 91.132 71.9988 91.6929 71.1936C92.2566 70.3857 93.4868 69.6707 94.1029 69.1017C94.66 68.5908 96.9023 66.2934 97.3282 66.1242C97.6759 65.9868 98.0941 66.3232 98.1236 66.2956C98.1619 66.2597 98.1611 65.6651 98.4234 65.3363C98.5546 65.169 100.715 63.7265 100.899 63.6924C101.397 63.5998 101.754 63.8743 102.199 63.9058C102.479 63.9262 102.787 63.7017 102.995 63.7199C103.16 63.7338 103.142 64.1191 103.238 64.1622C103.779 64.4083 104.451 64.3356 104.719 64.9988C103.653 65.9335 104.613 67.0392 104.379 68.2608C103.846 71.0393 99.7106 76.2542 97.4039 77.9778C96.1172 78.9397 93.8464 79.7269 92.5498 80.4626C92.1565 80.6844 92.3744 81.5546 91.0861 80.8814L91.0695 81.5726C89.9648 81.2369 89.5543 82.347 89.0213 82.6414C88.5292 82.9114 87.6498 82.6859 87.1453 83.3385C86.3783 84.3285 87.0808 84.3654 87.2839 84.7179C87.4005 84.9189 87.3551 85.2604 87.4412 85.3404C88.1351 86.0002 89.2598 85.3618 90.0129 85.246C97.1681 84.1417 99.0529 82.8189 104.668 77.9289C109.162 74.0176 113.84 69.6262 118.568 65.8338C119.34 65.2156 121.319 62.7239 121.957 64.3395L122.912 64.0815L122.933 64.8597L123.708 64.9304L121.889 70.3543C122.716 69.8979 124.337 68.4923 125.181 68.3194C125.308 68.2921 127.657 68.362 127.784 68.3919C128.366 68.5278 128.85 69.3352 129.608 69.2339L129.305 70.0416L130.386 70.2108L130.092 71.1646L130.918 70.9168L130.314 72.8154C131.605 73.0456 131.846 72.2959 132.62 71.9864C133.02 71.8249 133.484 72.0686 133.653 71.974C133.822 71.8794 134.553 69.699 135.587 70.0039L135.871 70.5276L135.7 69.6017C136.351 68.9338 136.953 67.1952 137.876 67.8509L137.352 67.1537C138.343 66.8598 138.135 66.1185 138.533 65.5853C138.898 65.0968 139.408 64.7931 139.757 64.3356C140.331 63.588 141.46 60.846 142.502 62.6061C143.283 63.9261 142.356 67.2292 141.613 68.4401L141.619 68.4375ZM100.48 70.2105L100.065 69.4196C99.7933 69.428 99.5026 69.4815 99.2479 69.5762C98.7499 69.7602 97.0643 71.5611 96.8066 71.6585C96.6821 71.706 96.3481 71.4179 96.3301 71.4459C96.5222 72.4955 95.8792 72.1232 95.5886 72.3539C94.4589 73.2351 94.4905 73.8507 94.021 74.4844C93.5636 75.0985 92.2591 75.814 91.7733 76.5101C92.2877 76.6124 92.5773 76.5017 93.0247 76.2874C94.3409 75.6552 97.465 73.2405 98.5103 72.1365C99.1499 71.4625 99.3903 69.9495 100.486 70.2135L100.48 70.2105ZM92.4647 88.8724L92.4823 88.327L92.2137 88.3183L92.1961 88.8637L92.4647 88.8724Z" fill="currentColor"/>
<path d="M206.874 74.7363C206.801 74.7826 206.517 74.6505 206.379 74.7547C206.572 76.3931 204.253 78.6766 202.656 77.8905C202.553 77.9815 203.216 79.4207 202.24 79.7208C201.913 79.8218 201.503 79.5198 201.136 79.7281C200.725 79.9635 200.652 81.1503 199.877 81.334C198.859 81.5728 198.763 80.2119 198.389 82.4152L197.578 82.1118L197.551 82.937L196.463 82.6247L196.423 83.4209L195.336 83.4116L195.453 83.9585L196.141 83.9806C195.196 84.4619 195.045 83.831 194.233 83.6476L194.206 84.4728L193.392 84.1693L193.357 85.2658C192.448 84.9936 191.181 85.313 190.188 85.5096C190.033 85.5389 190.067 85.9888 189.881 85.9828C189.65 85.9754 189.33 85.6792 189.072 85.7052C188.665 85.7464 188.397 86.1579 188.096 86.0825C187.648 85.968 186.87 84.9911 186.164 84.6968C185.698 84.5017 184.735 84.4849 184.641 84.3961C184.374 84.1417 184.906 83.1841 183.521 83.4711L183.269 82.4882L182.48 82.4628L182.151 83.5356L181.077 82.9521L181.015 83.7276L179.122 83.9925L179.635 85.101L177.724 84.7707L178.246 85.605C177.468 85.6972 176.464 86.1193 175.813 86.53C175.043 87.0139 175.427 87.8639 174.37 86.8579C174.391 87.7161 172.887 87.5162 172.281 87.6796C171.776 87.8177 172.123 87.7888 171.212 87.911C170.577 87.9963 170.713 89.0955 169.528 88.0597L169.253 88.6025C168.466 88.5457 168.237 87.7322 167.846 87.531C167.303 87.2505 166.54 87.3117 165.879 86.9588C164.98 86.481 164.778 84.7509 164.86 83.8074L163.759 84.0435L164.628 82.5593C163.816 82.293 164.109 81.8051 164.131 81.0397L164.939 81.3402L163.865 80.7568C163.589 80.0275 164.441 80.3008 164.451 80.0753C164.461 79.7469 164.136 79.2877 164.191 78.7263C164.343 77.1991 165.675 74.0291 166.63 72.7993C167.194 72.0743 168.072 72.2598 167.872 71.007C168.393 71.0067 169.621 69.8971 169.481 69.4581C171.115 69.5308 170.513 68.691 170.955 68.3651C172.25 67.4149 176.009 65.6209 177.606 64.9949C178.391 64.6857 178.943 64.7664 179.082 64.7023C179.416 64.5473 179.425 64.0988 179.545 64.0283C179.714 63.9309 180.212 64.2556 180.598 64.1823C181.142 64.0798 181.784 63.6917 182.114 63.6623C183.941 63.5011 184.449 65.0582 185.987 65.6023L186.372 67.7699C187.77 66.7259 189.609 62.3974 190.828 61.7392C191.25 61.5127 191.597 62.29 192.076 61.0991L192.361 61.6743L193.847 61.4306C193.137 62.877 194.651 64.112 194.252 65.8286L193.474 65.935C194.013 67.4673 191.762 68.4439 191.928 69.867L191.394 69.5725C191.378 71.3986 189.942 72.6415 189.726 74.481C188.733 74.4862 189.244 74.5885 188.904 75.1377C188.439 75.8831 186.998 78.3493 187.024 79.3906C187.074 81.4103 188.03 81.3096 189.619 81.8582L189.646 81.0301C190.175 81.4016 191.648 80.7916 192.212 80.4982C192.962 80.1079 193.854 78.6416 194.926 79.0049L194.948 78.3225L195.766 78.4889L195.238 77.9288C197.049 78.2844 196.342 77.5927 196.811 77.1362C196.929 77.0199 199.306 75.2471 199.457 75.1777C199.73 75.0521 200.056 75.3142 200.204 75.2532C200.314 75.2081 201.331 73.7431 201.691 73.4031C202.924 72.2365 205.407 70.8387 206.668 69.4101C207.393 68.5902 208.003 68.4784 208.938 67.5767C209.777 66.7661 209.987 66.9044 210.582 66.3719C210.709 66.2588 211.752 64.7688 212.042 64.3894C212.917 63.2314 212.877 61.9123 214.941 62.6591L215.107 61.8441C216.372 62.1879 216.278 63.6026 216.715 64.5715C217.02 65.2416 217.771 64.5769 216.653 66.3331C216.204 67.0418 215.626 67.4034 214.791 67.3164L215.027 68.4217L214.493 68.1244C214.643 69.4212 213.119 69.1292 213.319 70.2819L212.52 69.7101L212.197 71.209L211.399 70.4972C211.357 71.7794 210.895 71.9989 209.697 72.0889L210.219 72.9204L209.107 73.4391L208.859 72.6107C209.086 73.9158 207.774 74.1593 206.866 74.7389L207.414 74.7566L207.111 75.5672L206.842 75.5585L206.868 74.739L206.874 74.7363ZM182.403 67.6421L181.529 68.4114L180.737 68.1343L180.996 68.6887C179.428 68.095 178.69 70.3066 177.129 69.3901L177.353 70.0948L176.904 70.2519L177.085 70.7551L174.608 70.9497L174.572 72.049L173.806 71.7785C173.059 72.4862 172.531 73.604 171.916 74.3131C171.56 74.7218 170.866 75.0453 170.616 75.3431C170.295 75.7187 169.033 78.2335 168.902 78.6323C168.842 78.8162 168.803 80.0269 168.801 80.3527C167.282 80.0865 168.304 81.4143 168.454 82.4339C168.536 83.0025 168.404 83.6186 168.423 84.1937L169.952 83.6942L170.2 84.251C170.917 83.1336 172.124 83.484 173.042 83.1563C173.16 83.1144 173.847 82.116 174.37 81.8899C174.892 81.6638 175.228 82.2491 175.502 81.4433L176.183 81.7082C176.037 80.4 178.141 80.2449 178.874 79.6111C179.25 79.2859 179.251 78.7428 179.602 78.4025C179.983 78.0346 182.122 77.0602 181.817 76.6931L181.297 76.3876C181.68 76.3285 182.856 75.0686 183.061 74.7294C183.829 73.4678 183.999 71.8297 184.953 70.6056L184.273 69.0715L183.736 69.3172L183.45 68.2532L182.231 68.4597L182.397 67.6504L182.403 67.6421ZM172.664 71.716L172.118 71.6984L172.512 72.257L172.664 71.716ZM172.348 73.0779L171.528 73.0514L171.519 73.3199L172.339 73.3463L172.348 73.0779ZM200.099 80.5522L199.553 80.5347L199.545 80.8031L200.091 80.8207L200.099 80.5522ZM197.33 81.2862L196.784 81.2687L196.775 81.5371L197.321 81.5547L197.33 81.2862Z" fill="currentColor"/>
<path d="M251.682 21.3405L251.136 21.3229L251.127 21.5913L251.673 21.6089L251.682 21.3405Z" fill="currentColor"/>
<path d="M347.894 67.492L347.349 67.4744L347.34 67.7428L347.886 67.7604L347.894 67.492Z" fill="currentColor"/>
</g>
<defs>
<clipPath id="clip0_735_2839">
<rect width="350" height="101" fill="white" transform="translate(3.7168 0.390259) rotate(1.84556)"/>
</clipPath>
</defs>
</svg>
