<svg width="100" height="18" viewBox="0 0 100 18" fill="none" xmlns="http://www.w3.org/2000/svg">
<path d="M8.56055 9.14844H14.791V9.64648C14.791 10.7793 14.6576 11.7819 14.3906 12.6543C14.1302 13.4616 13.6908 14.2168 13.0723 14.9199C11.6725 16.4954 9.89193 17.2832 7.73047 17.2832C5.62109 17.2832 3.81445 16.5215 2.31055 14.998C0.806641 13.4681 0.0546875 11.6322 0.0546875 9.49023C0.0546875 7.30273 0.819661 5.44727 2.34961 3.92383C3.87956 2.39388 5.74154 1.62891 7.93555 1.62891C9.11393 1.62891 10.2142 1.86979 11.2363 2.35156C12.2129 2.83333 13.1732 3.61458 14.1172 4.69531L12.4961 6.24805C11.2591 4.60091 9.75195 3.77734 7.97461 3.77734C6.37956 3.77734 5.04167 4.32747 3.96094 5.42773C2.88021 6.50846 2.33984 7.86263 2.33984 9.49023C2.33984 11.1699 2.94206 12.5534 4.14648 13.6406C5.27279 14.6497 6.49349 15.1543 7.80859 15.1543C8.92839 15.1543 9.93424 14.7767 10.8262 14.0215C11.7181 13.2598 12.2161 12.3483 12.3203 11.2871H8.56055V9.14844ZM19.0395 7.48828V12.9473C19.0395 14.5228 19.6612 15.3105 20.9047 15.3105C22.1482 15.3105 22.7699 14.5228 22.7699 12.9473V7.48828H24.9672V12.9961C24.9672 13.7578 24.8728 14.4154 24.684 14.9688C24.5017 15.4635 24.1859 15.9095 23.7367 16.3066C22.9945 16.9512 22.0505 17.2734 20.9047 17.2734C19.7654 17.2734 18.8246 16.9512 18.0824 16.3066C17.6267 15.9095 17.3044 15.4635 17.1156 14.9688C16.9333 14.526 16.8422 13.8685 16.8422 12.9961V7.48828H19.0395ZM36.0027 12.7617H29.1863C29.2449 13.543 29.4988 14.1647 29.948 14.627C30.3973 15.0827 30.9734 15.3105 31.6766 15.3105C32.2234 15.3105 32.6759 15.1803 33.034 14.9199C33.3855 14.6595 33.7859 14.1777 34.2352 13.4746L36.0906 14.5098C35.8042 14.998 35.5014 15.418 35.1824 15.7695C34.8634 16.1146 34.5216 16.401 34.157 16.6289C33.7924 16.8503 33.3986 17.013 32.9754 17.1172C32.5522 17.2214 32.0932 17.2734 31.5984 17.2734C30.1792 17.2734 29.0398 16.8177 28.1805 15.9062C27.3211 14.9883 26.8914 13.7708 26.8914 12.2539C26.8914 10.75 27.3081 9.53255 28.1414 8.60156C28.9813 7.68359 30.0945 7.22461 31.4813 7.22461C32.881 7.22461 33.9878 7.67057 34.8016 8.5625C35.6089 9.44792 36.0125 10.6751 36.0125 12.2441L36.0027 12.7617ZM33.7469 10.9648C33.4409 9.79297 32.702 9.20703 31.5301 9.20703C31.2632 9.20703 31.0125 9.24935 30.7781 9.33398C30.5438 9.41211 30.3289 9.5293 30.1336 9.68555C29.9448 9.83529 29.782 10.0176 29.6453 10.2324C29.5086 10.4473 29.4044 10.6914 29.3328 10.9648H33.7469ZM43.5422 9.10938L41.7258 10.0762C41.4393 9.49023 41.0845 9.19727 40.6613 9.19727C40.4595 9.19727 40.287 9.26562 40.1437 9.40234C40.0005 9.53255 39.9289 9.70182 39.9289 9.91016C39.9289 10.2747 40.3521 10.6361 41.1984 10.9941C42.3638 11.4954 43.1483 11.9577 43.552 12.3809C43.9556 12.804 44.1574 13.3737 44.1574 14.0898C44.1574 15.0078 43.8189 15.776 43.1418 16.3945C42.4842 16.9805 41.69 17.2734 40.759 17.2734C39.1639 17.2734 38.0344 16.4954 37.3703 14.9395L39.2453 14.0703C39.5057 14.526 39.7043 14.8158 39.841 14.9395C40.1079 15.1868 40.427 15.3105 40.798 15.3105C41.5402 15.3105 41.9113 14.972 41.9113 14.2949C41.9113 13.9043 41.6249 13.5397 41.052 13.2012C40.8306 13.0905 40.6092 12.9831 40.3879 12.8789C40.1665 12.7747 39.9419 12.6673 39.7141 12.5566C39.076 12.2441 38.6268 11.9316 38.3664 11.6191C38.0344 11.222 37.8684 10.7109 37.8684 10.0859C37.8684 9.25911 38.1516 8.57552 38.718 8.03516C39.2974 7.49479 40.0005 7.22461 40.8273 7.22461C42.0448 7.22461 42.9497 7.85286 43.5422 9.10938ZM48.0055 9.53906V17H45.8082V9.53906H44.8707V7.48828H45.8082V4.00195H48.0055V7.48828H49.7145V9.53906H48.0055ZM57.0004 17V1.92188H59.266C60.2751 1.92188 61.0792 2 61.6781 2.15625C62.2836 2.3125 62.7947 2.57617 63.2113 2.94727C63.6345 3.33138 63.9698 3.8099 64.2172 4.38281C64.4711 4.96224 64.598 5.54818 64.598 6.14062C64.598 7.22135 64.1846 8.13607 63.3578 8.88477C64.1586 9.1582 64.7901 9.63672 65.2523 10.3203C65.7211 10.9974 65.9555 11.7852 65.9555 12.6836C65.9555 13.862 65.5388 14.8581 64.7055 15.6719C64.2042 16.1732 63.641 16.5215 63.016 16.7168C62.3324 16.9056 61.4763 17 60.4477 17H57.0004ZM59.2758 8.39648H59.9887C60.835 8.39648 61.4535 8.21094 61.8441 7.83984C62.2413 7.46224 62.4398 6.90885 62.4398 6.17969C62.4398 5.47005 62.238 4.93294 61.8344 4.56836C61.4307 4.19727 60.8448 4.01172 60.0766 4.01172H59.2758V8.39648ZM59.2758 14.8613H60.682C61.7107 14.8613 62.4659 14.6595 62.9477 14.2559C63.4555 13.8197 63.7094 13.2663 63.7094 12.5957C63.7094 11.9447 63.4652 11.3978 62.977 10.9551C62.5017 10.5189 61.6521 10.3008 60.4281 10.3008H59.2758V14.8613ZM67.5672 12.1758C67.5672 10.8021 68.0587 9.63346 69.0418 8.66992C70.0249 7.70638 71.2228 7.22461 72.6355 7.22461C74.0548 7.22461 75.2592 7.70964 76.2488 8.67969C77.2254 9.64974 77.7137 10.8411 77.7137 12.2539C77.7137 13.6797 77.2221 14.8743 76.2391 15.8379C75.2495 16.7949 74.0353 17.2734 72.5965 17.2734C71.1707 17.2734 69.976 16.7852 69.0125 15.8086C68.049 14.8451 67.5672 13.6341 67.5672 12.1758ZM69.8133 12.2148C69.8133 13.1654 70.0672 13.9173 70.575 14.4707C71.0958 15.0306 71.7827 15.3105 72.6355 15.3105C73.4949 15.3105 74.1818 15.0339 74.6961 14.4805C75.2104 13.9271 75.4676 13.1882 75.4676 12.2637C75.4676 11.3392 75.2104 10.6003 74.6961 10.0469C74.1753 9.48698 73.4884 9.20703 72.6355 9.20703C71.7957 9.20703 71.1154 9.48698 70.5945 10.0469C70.0737 10.6068 69.8133 11.3294 69.8133 12.2148ZM79.1984 12.1758C79.1984 10.8021 79.69 9.63346 80.673 8.66992C81.6561 7.70638 82.854 7.22461 84.2668 7.22461C85.6861 7.22461 86.8905 7.70964 87.8801 8.67969C88.8566 9.64974 89.3449 10.8411 89.3449 12.2539C89.3449 13.6797 88.8534 14.8743 87.8703 15.8379C86.8807 16.7949 85.6665 17.2734 84.2277 17.2734C82.802 17.2734 81.6073 16.7852 80.6438 15.8086C79.6802 14.8451 79.1984 13.6341 79.1984 12.1758ZM81.4445 12.2148C81.4445 13.1654 81.6984 13.9173 82.2063 14.4707C82.7271 15.0306 83.4139 15.3105 84.2668 15.3105C85.1262 15.3105 85.813 15.0339 86.3273 14.4805C86.8417 13.9271 87.0988 13.1882 87.0988 12.2637C87.0988 11.3392 86.8417 10.6003 86.3273 10.0469C85.8065 9.48698 85.1197 9.20703 84.2668 9.20703C83.427 9.20703 82.7466 9.48698 82.2258 10.0469C81.705 10.6068 81.4445 11.3294 81.4445 12.2148ZM93.4762 0.505859V10.5645L96.5719 7.48828H99.5211L95.3902 11.4824L99.8238 17H96.9723L93.8277 12.9863L93.4762 13.3379V17H91.2789V0.505859H93.4762Z" fill="currentColor"/>
</svg>
