<svg width="50" height="18" viewBox="0 0 50 18" fill="none" xmlns="http://www.w3.org/2000/svg">
<path d="M9.83203 4.16797L7.98633 5.26172C7.64128 4.66276 7.3125 4.27214 7 4.08984C6.67448 3.88151 6.25456 3.77734 5.74023 3.77734C5.10872 3.77734 4.58464 3.95638 4.16797 4.31445C3.7513 4.66602 3.54297 5.10872 3.54297 5.64258C3.54297 6.37826 4.08984 6.9707 5.18359 7.41992L6.6875 8.03516C7.91146 8.52995 8.80664 9.13542 9.37305 9.85156C9.93945 10.5612 10.2227 11.4336 10.2227 12.4688C10.2227 13.8555 9.76042 15.0013 8.83594 15.9062C7.90495 16.8177 6.74935 17.2734 5.36914 17.2734C4.06055 17.2734 2.97982 16.8861 2.12695 16.1113C1.28711 15.3366 0.763021 14.2461 0.554688 12.8398L2.85938 12.332C2.96354 13.2174 3.14583 13.8294 3.40625 14.168C3.875 14.819 4.55859 15.1445 5.45703 15.1445C6.16667 15.1445 6.75586 14.9069 7.22461 14.4316C7.69336 13.9564 7.92773 13.3542 7.92773 12.625C7.92773 12.332 7.88542 12.0651 7.80078 11.8242C7.72266 11.5768 7.5957 11.3522 7.41992 11.1504C7.25065 10.9421 7.0293 10.75 6.75586 10.5742C6.48242 10.3919 6.1569 10.2194 5.7793 10.0566L4.32422 9.45117C2.26042 8.57878 1.22852 7.30273 1.22852 5.62305C1.22852 4.49023 1.66146 3.54297 2.52734 2.78125C3.39323 2.01302 4.4707 1.62891 5.75977 1.62891C7.49805 1.62891 8.85547 2.47526 9.83203 4.16797ZM12.1469 0.505859H14.3441V8.2793C15.1254 7.57617 15.988 7.22461 16.932 7.22461C18.0063 7.22461 18.8656 7.57292 19.5102 8.26953C20.057 8.875 20.3305 9.8418 20.3305 11.1699V17H18.1332V11.375C18.1332 10.6133 17.9965 10.0632 17.723 9.72461C17.4561 9.37956 17.0232 9.20703 16.4242 9.20703C15.656 9.20703 15.1156 9.44466 14.8031 9.91992C14.4971 10.4017 14.3441 11.2285 14.3441 12.4004V17H12.1469V0.505859ZM29.7352 7.48828H31.9422V17H29.7352V16.0039C28.8302 16.8503 27.8569 17.2734 26.8152 17.2734C25.5001 17.2734 24.4129 16.7982 23.5535 15.8477C22.7007 14.8776 22.2742 13.6667 22.2742 12.2148C22.2742 10.7891 22.7007 9.60091 23.5535 8.65039C24.4064 7.69987 25.4741 7.22461 26.7566 7.22461C27.8634 7.22461 28.8563 7.68034 29.7352 8.5918V7.48828ZM24.5203 12.2148C24.5203 13.1263 24.7645 13.8685 25.2527 14.4414C25.754 15.0208 26.3855 15.3105 27.1473 15.3105C27.9611 15.3105 28.6186 15.0306 29.1199 14.4707C29.6212 13.8913 29.8719 13.1556 29.8719 12.2637C29.8719 11.3717 29.6212 10.6361 29.1199 10.0566C28.6186 9.49023 27.9676 9.20703 27.1668 9.20703C26.4116 9.20703 25.7801 9.49349 25.2723 10.0664C24.771 10.6458 24.5203 11.362 24.5203 12.2148ZM34.3156 7.48828H36.5129V8.33789C36.9165 7.91471 37.2746 7.625 37.5871 7.46875C37.9061 7.30599 38.2837 7.22461 38.7199 7.22461C39.2993 7.22461 39.9048 7.41341 40.5363 7.79102L39.5305 9.80273C39.1138 9.50326 38.7069 9.35352 38.3098 9.35352C37.1118 9.35352 36.5129 10.2585 36.5129 12.0684V17H34.3156V7.48828ZM49.9215 12.7617H43.1051C43.1637 13.543 43.4176 14.1647 43.8668 14.627C44.316 15.0827 44.8922 15.3105 45.5953 15.3105C46.1422 15.3105 46.5947 15.1803 46.9527 14.9199C47.3043 14.6595 47.7047 14.1777 48.1539 13.4746L50.0094 14.5098C49.7229 14.998 49.4202 15.418 49.1012 15.7695C48.7822 16.1146 48.4404 16.401 48.0758 16.6289C47.7112 16.8503 47.3173 17.013 46.8941 17.1172C46.471 17.2214 46.012 17.2734 45.5172 17.2734C44.0979 17.2734 42.9586 16.8177 42.0992 15.9062C41.2398 14.9883 40.8102 13.7708 40.8102 12.2539C40.8102 10.75 41.2268 9.53255 42.0602 8.60156C42.9 7.68359 44.0133 7.22461 45.4 7.22461C46.7997 7.22461 47.9065 7.67057 48.7203 8.5625C49.5276 9.44792 49.9313 10.6751 49.9313 12.2441L49.9215 12.7617ZM47.6656 10.9648C47.3596 9.79297 46.6207 9.20703 45.4488 9.20703C45.1819 9.20703 44.9313 9.24935 44.6969 9.33398C44.4625 9.41211 44.2477 9.5293 44.0523 9.68555C43.8635 9.83529 43.7008 10.0176 43.5641 10.2324C43.4273 10.4473 43.3232 10.6914 43.2516 10.9648H47.6656Z" fill="currentColor"/>
</svg>
