<svg width="71" height="17" viewBox="0 0 71 17" fill="none" xmlns="http://www.w3.org/2000/svg">
<path d="M2.58203 0.921875V13.8613H7.01562V16H0.306641V0.921875H2.58203ZM7.90469 11.1758C7.90469 9.80208 8.39622 8.63346 9.3793 7.66992C10.3624 6.70638 11.5603 6.22461 12.973 6.22461C14.3923 6.22461 15.5967 6.70964 16.5863 7.67969C17.5629 8.64974 18.0512 9.84115 18.0512 11.2539C18.0512 12.6797 17.5596 13.8743 16.5766 14.8379C15.587 15.7949 14.3728 16.2734 12.934 16.2734C11.5082 16.2734 10.3135 15.7852 9.35 14.8086C8.38646 13.8451 7.90469 12.6341 7.90469 11.1758ZM10.1508 11.2148C10.1508 12.1654 10.4047 12.9173 10.9125 13.4707C11.4333 14.0306 12.1202 14.3105 12.973 14.3105C13.8324 14.3105 14.5193 14.0339 15.0336 13.4805C15.5479 12.9271 15.8051 12.1882 15.8051 11.2637C15.8051 10.3392 15.5479 9.60026 15.0336 9.04688C14.5128 8.48698 13.8259 8.20703 12.973 8.20703C12.1332 8.20703 11.4529 8.48698 10.932 9.04688C10.4112 9.60677 10.1508 10.3294 10.1508 11.2148ZM27.3875 6.89844V9.81836C26.8862 9.20638 26.437 8.78646 26.0398 8.55859C25.6492 8.32422 25.1902 8.20703 24.6629 8.20703C23.8361 8.20703 23.1492 8.49674 22.6023 9.07617C22.0555 9.6556 21.782 10.3815 21.782 11.2539C21.782 12.1458 22.0457 12.8783 22.573 13.4512C23.1069 14.0241 23.7872 14.3105 24.6141 14.3105C25.1414 14.3105 25.6069 14.1966 26.0105 13.9688C26.4012 13.7474 26.8602 13.3177 27.3875 12.6797V15.5801C26.4956 16.0423 25.6036 16.2734 24.7117 16.2734C23.2404 16.2734 22.0099 15.7982 21.0203 14.8477C20.0307 13.8906 19.5359 12.7025 19.5359 11.2832C19.5359 9.86393 20.0372 8.66602 21.0398 7.68945C22.0424 6.71289 23.2729 6.22461 24.7313 6.22461C25.6688 6.22461 26.5542 6.44922 27.3875 6.89844ZM36.1281 6.48828H38.3352V16H36.1281V15.0039C35.2232 15.8503 34.2499 16.2734 33.2082 16.2734C31.8931 16.2734 30.8059 15.7982 29.9465 14.8477C29.0936 13.8776 28.6672 12.6667 28.6672 11.2148C28.6672 9.78906 29.0936 8.60091 29.9465 7.65039C30.7993 6.69987 31.8671 6.22461 33.1496 6.22461C34.2564 6.22461 35.2492 6.68034 36.1281 7.5918V6.48828ZM30.9133 11.2148C30.9133 12.1263 31.1574 12.8685 31.6457 13.4414C32.147 14.0208 32.7785 14.3105 33.5402 14.3105C34.354 14.3105 35.0116 14.0306 35.5129 13.4707C36.0142 12.8913 36.2648 12.1556 36.2648 11.2637C36.2648 10.3717 36.0142 9.63607 35.5129 9.05664C35.0116 8.49023 34.3605 8.20703 33.5598 8.20703C32.8046 8.20703 32.173 8.49349 31.6652 9.06641C31.1639 9.64583 30.9133 10.362 30.9133 11.2148ZM42.9742 8.53906V16H40.777V8.53906H39.8395V6.48828H40.777V3.00195H42.9742V6.48828H44.6832V8.53906H42.9742ZM47.9746 6.48828V16H45.7773V6.48828H47.9746ZM45.4453 2.5332C45.4453 2.14909 45.5853 1.81706 45.8652 1.53711C46.1452 1.25716 46.4805 1.11719 46.8711 1.11719C47.2682 1.11719 47.6068 1.25716 47.8867 1.53711C48.1667 1.81055 48.3066 2.14583 48.3066 2.54297C48.3066 2.9401 48.1667 3.27865 47.8867 3.55859C47.6133 3.83854 47.278 3.97852 46.8809 3.97852C46.4837 3.97852 46.1452 3.83854 45.8652 3.55859C45.5853 3.27865 45.4453 2.93685 45.4453 2.5332ZM49.9086 11.1758C49.9086 9.80208 50.4001 8.63346 51.3832 7.66992C52.3663 6.70638 53.5642 6.22461 54.977 6.22461C56.3962 6.22461 57.6006 6.70964 58.5902 7.67969C59.5668 8.64974 60.0551 9.84115 60.0551 11.2539C60.0551 12.6797 59.5635 13.8743 58.5805 14.8379C57.5909 15.7949 56.3767 16.2734 54.9379 16.2734C53.5121 16.2734 52.3174 15.7852 51.3539 14.8086C50.3904 13.8451 49.9086 12.6341 49.9086 11.1758ZM52.1547 11.2148C52.1547 12.1654 52.4086 12.9173 52.9164 13.4707C53.4372 14.0306 54.1241 14.3105 54.977 14.3105C55.8363 14.3105 56.5232 14.0339 57.0375 13.4805C57.5518 12.9271 57.809 12.1882 57.809 11.2637C57.809 10.3392 57.5518 9.60026 57.0375 9.04688C56.5167 8.48698 55.8298 8.20703 54.977 8.20703C54.1371 8.20703 53.4568 8.48698 52.9359 9.04688C52.4151 9.60677 52.1547 10.3294 52.1547 11.2148ZM61.9891 6.48828H64.1961V7.36719C64.9643 6.60547 65.8302 6.22461 66.7938 6.22461C67.9005 6.22461 68.7632 6.57292 69.3816 7.26953C69.9155 7.86198 70.1824 8.82878 70.1824 10.1699V16H67.9754V10.6875C67.9754 9.75 67.8452 9.10221 67.5848 8.74414C67.3309 8.37956 66.8686 8.19727 66.198 8.19727C65.4689 8.19727 64.9513 8.43815 64.6453 8.91992C64.3458 9.39518 64.1961 10.2253 64.1961 11.4102V16H61.9891V6.48828Z" fill="currentColor"/>
</svg>
