<svg width="39" height="18" viewBox="0 0 39 18" fill="none" xmlns="http://www.w3.org/2000/svg">
<path d="M8.56055 9.14844H14.791V9.64648C14.791 10.7793 14.6576 11.7819 14.3906 12.6543C14.1302 13.4616 13.6908 14.2168 13.0723 14.9199C11.6725 16.4954 9.89193 17.2832 7.73047 17.2832C5.62109 17.2832 3.81445 16.5215 2.31055 14.998C0.806641 13.4681 0.0546875 11.6322 0.0546875 9.49023C0.0546875 7.30273 0.819661 5.44727 2.34961 3.92383C3.87956 2.39388 5.74154 1.62891 7.93555 1.62891C9.11393 1.62891 10.2142 1.86979 11.2363 2.35156C12.2129 2.83333 13.1732 3.61458 14.1172 4.69531L12.4961 6.24805C11.2591 4.60091 9.75195 3.77734 7.97461 3.77734C6.37956 3.77734 5.04167 4.32747 3.96094 5.42773C2.88021 6.50846 2.33984 7.86263 2.33984 9.49023C2.33984 11.1699 2.94206 12.5534 4.14648 13.6406C5.27279 14.6497 6.49349 15.1543 7.80859 15.1543C8.92839 15.1543 9.93424 14.7767 10.8262 14.0215C11.7181 13.2598 12.2161 12.3483 12.3203 11.2871H8.56055V9.14844ZM19.0395 7.48828V17H16.8422V7.48828H19.0395ZM16.5102 3.5332C16.5102 3.14909 16.6501 2.81706 16.9301 2.53711C17.21 2.25716 17.5453 2.11719 17.9359 2.11719C18.3331 2.11719 18.6716 2.25716 18.9516 2.53711C19.2315 2.81055 19.3715 3.14583 19.3715 3.54297C19.3715 3.9401 19.2315 4.27865 18.9516 4.55859C18.6781 4.83854 18.3428 4.97852 17.9457 4.97852C17.5486 4.97852 17.21 4.83854 16.9301 4.55859C16.6501 4.27865 16.5102 3.93685 16.5102 3.5332ZM23.698 9.53906V17H21.491V9.53906H20.7098V7.48828H21.491V3.81641C21.491 2.61849 21.6993 1.77214 22.116 1.27734C22.6889 0.58724 23.5223 0.242188 24.616 0.242188C25.0066 0.242188 25.4982 0.35612 26.0906 0.583984V2.83008L25.866 2.71289C25.3908 2.47201 25.0001 2.35156 24.6941 2.35156C24.3035 2.35156 24.0398 2.49154 23.9031 2.77148C23.7664 3.04492 23.698 3.57227 23.698 4.35352V7.48828H26.0906V9.53906H23.698ZM29.9484 9.53906V17H27.7512V9.53906H26.8137V7.48828H27.7512V4.00195H29.9484V7.48828H31.6574V9.53906H29.9484ZM38.2789 9.10938L36.4625 10.0762C36.176 9.49023 35.8212 9.19727 35.398 9.19727C35.1962 9.19727 35.0237 9.26562 34.8805 9.40234C34.7372 9.53255 34.6656 9.70182 34.6656 9.91016C34.6656 10.2747 35.0888 10.6361 35.9352 10.9941C37.1005 11.4954 37.885 11.9577 38.2887 12.3809C38.6923 12.804 38.8941 13.3737 38.8941 14.0898C38.8941 15.0078 38.5556 15.776 37.8785 16.3945C37.221 16.9805 36.4267 17.2734 35.4957 17.2734C33.9007 17.2734 32.7711 16.4954 32.107 14.9395L33.982 14.0703C34.2424 14.526 34.441 14.8158 34.5777 14.9395C34.8447 15.1868 35.1637 15.3105 35.5348 15.3105C36.277 15.3105 36.648 14.972 36.648 14.2949C36.648 13.9043 36.3616 13.5397 35.7887 13.2012C35.5673 13.0905 35.346 12.9831 35.1246 12.8789C34.9033 12.7747 34.6786 12.6673 34.4508 12.5566C33.8128 12.2441 33.3635 11.9316 33.1031 11.6191C32.7711 11.222 32.6051 10.7109 32.6051 10.0859C32.6051 9.25911 32.8883 8.57552 33.4547 8.03516C34.0341 7.49479 34.7372 7.22461 35.5641 7.22461C36.7815 7.22461 37.6865 7.85286 38.2789 9.10938Z" fill="currentColor"/>
</svg>
